<svg width="50" height="33" viewBox="0 0 50 33" fill="none" xmlns="http://www.w3.org/2000/svg">
<g id="adidas-9 1" clip-path="url(#clip0_74_2997)">
<path id="Vector" d="M45.5083 32.9366C43.2291 32.9366 41.8775 31.7702 41.774 30.0904H43.9531C43.9531 30.6504 44.2634 31.3957 45.6118 31.442C46.5462 31.442 47.0633 30.8822 47.0633 30.4613C46.9598 29.8086 46.1289 29.7623 45.3013 29.6196C44.3669 29.4841 43.6429 29.295 43.1222 29.0632C42.3981 28.6888 41.9808 27.8934 41.9808 27.0553C41.9808 25.5607 43.2291 24.3943 45.4048 24.3943C47.4807 24.3943 48.8289 25.4681 48.9286 27.1016H46.8565C46.8565 26.6841 46.753 25.9817 45.5081 25.9817C44.6772 25.9817 44.1601 26.1207 44.0566 26.727C44.0566 27.5688 45.8186 27.5224 47.1668 27.8469C48.4115 28.1751 49.2425 28.9669 49.2425 30.0904C49.2425 32.1448 47.584 32.9366 45.5083 32.9366ZM5.79712 19.1533L12.9519 14.998L16.7896 21.5823H7.14532" fill="black"/>
<g id="Vector_2">
<path d="M20.8333 32.6882V24.3779V32.6882Z" fill="black"/>
<path d="M20.8333 32.6882V24.3779" stroke="black" stroke-width="2.09363"/>
</g>
<path id="Vector_3" d="M2.46723 28.6579C2.46723 29.9632 3.60847 31.0368 4.84962 31.0368C6.2014 31.0368 7.23574 29.9632 7.23574 28.6579C7.23574 27.3989 6.2014 26.2789 4.84962 26.2789C3.60847 26.2789 2.46723 27.3989 2.46723 28.6579ZM4.7463 32.9522C2.46707 32.9522 0.498291 31.0368 0.498291 28.6579C0.498291 26.2789 2.46723 24.4101 4.7463 24.4101C5.68073 24.4101 6.51168 24.6455 7.23574 25.1554V24.5027H9.31158V32.7631H7.2359V32.2495C6.61533 32.7168 5.68073 32.9522 4.7463 32.9522ZM32.439 21.5816L22.4845 4.2191L29.6391 0.0175781L42.0832 21.5816M12.008 28.6579C12.008 29.9632 13.0461 31.0368 14.3941 31.0368C15.6353 31.0368 16.7802 29.9632 16.7802 28.6579C16.7802 27.3989 15.6353 26.2789 14.3941 26.2789C13.0459 26.2789 12.008 27.3989 12.008 28.6579ZM14.2906 32.9522C11.9045 32.9522 10.0392 31.0368 10.0392 28.6579C10.0392 26.2789 11.9045 24.4101 14.2906 24.4101C15.2215 24.4101 16.0526 24.6455 16.7802 25.1554V21.6565H18.8525V32.7631H16.7801V32.2495C16.0524 32.7168 15.2216 32.9522 14.2906 32.9522ZM14.1884 11.7335L21.4466 7.62834L29.4325 21.5811H21.8605V23.6355H19.7881V21.5811M47.8887 23.7001C47.368 23.7001 46.8509 23.2329 46.8509 22.6729C46.8509 22.113 47.368 21.6458 47.8887 21.6458C48.5093 21.6458 48.9268 22.1131 48.9268 22.6729C48.9268 23.2328 48.5093 23.7001 47.8887 23.7001ZM47.8887 21.7886C47.368 21.7886 47.0577 22.2057 47.0577 22.6729C47.0577 23.1402 47.368 23.5611 47.8887 23.5611C48.4059 23.5611 48.7162 23.1403 48.7162 22.6729C48.7162 22.2056 48.4059 21.7886 47.8887 21.7886Z" fill="black"/>
<path id="Vector_4" d="M48.1014 23.2353L47.8944 22.7681H47.6876V23.2353H47.5307V22.1153H47.9979C48.1014 22.1153 48.3082 22.2581 48.3082 22.4435C48.3082 22.6289 48.2047 22.7218 48.1014 22.7681L48.3082 23.2353M47.8944 22.2581H47.6876V22.629H47.8944C48.1014 22.629 48.1014 22.5827 48.1014 22.4435C48.1014 22.3473 48.1014 22.2581 47.8944 22.2581ZM34.1913 28.6567C34.1913 29.962 35.2293 31.0356 36.5774 31.0356C37.8221 31.0356 38.9599 29.962 38.9599 28.6567C38.9599 27.3977 37.8221 26.2777 36.5774 26.2777C35.2292 26.2777 34.1913 27.3977 34.1913 28.6567ZM36.4705 32.951C34.0879 32.951 32.2225 31.0356 32.2225 28.6567C32.2225 26.2777 34.0879 24.4089 36.4703 24.4089C37.4049 24.4089 38.2359 24.6442 38.9599 25.1542V24.5014H40.9323V32.7619H38.9601V32.2484C38.2359 32.7156 37.4051 32.951 36.4705 32.951ZM24.6577 28.6567C24.6577 29.962 25.7989 31.0356 27.0436 31.0356C28.392 31.0356 29.4297 29.962 29.4297 28.6567C29.4297 27.3977 28.3918 26.2777 27.0436 26.2777C25.7989 26.2777 24.6577 27.3977 24.6577 28.6567ZM29.4297 21.6553H31.502V32.7619H29.4297V32.2484C28.8056 32.7156 27.9746 32.951 27.0436 32.951C24.6577 32.951 22.6887 31.0356 22.6887 28.6567C22.6887 26.2777 24.6577 24.4089 27.0436 24.4089C27.9745 24.4089 28.8056 24.6442 29.4297 25.1542V21.6553Z" fill="black"/>
</g>
<defs>
<clipPath id="clip0_74_2997">
<rect width="48.735" height="32.9642" fill="white" transform="translate(0.5)"/>
</clipPath>
</defs>
</svg>
