<svg width="160" height="80" viewBox="0 0 160 80" fill="none" xmlns="http://www.w3.org/2000/svg">
<g clip-path="url(#clip0_91_2571)">
<path d="M107.809 61.1339C104.755 61.1339 102.944 59.5709 102.805 57.32H105.725C105.725 58.0704 106.141 59.0691 107.948 59.1312C109.2 59.1312 109.893 58.381 109.893 57.817C109.754 56.9423 108.641 56.8803 107.532 56.6891C106.28 56.5076 105.31 56.2542 104.612 55.9436C103.642 55.4418 103.083 54.376 103.083 53.2529C103.083 51.2502 104.755 49.6872 107.671 49.6872C110.452 49.6872 112.259 51.1261 112.393 53.315H109.616C109.616 52.7555 109.477 51.8142 107.809 51.8142C106.696 51.8142 106.003 52.0006 105.864 52.813C105.864 53.9411 108.225 53.8788 110.032 54.3137C111.7 54.7535 112.813 55.8145 112.813 57.32C112.813 60.0729 110.591 61.1339 107.809 61.1339ZM54.5966 42.6642L64.184 37.0962L69.3264 45.9191H56.4031" fill="#A7A7A7"/>
<path d="M74.7457 60.8018V49.666V60.8018Z" fill="#A7A7A7"/>
<path d="M74.7457 60.8018V49.666" stroke="#A7A7A7" stroke-width="2.80546"/>
<path d="M50.1364 55.3966C50.1364 57.1457 51.6657 58.5844 53.3288 58.5844C55.1402 58.5844 56.5262 57.1457 56.5262 55.3966C56.5262 53.7095 55.1402 52.2088 53.3288 52.2088C51.6657 52.2088 50.1364 53.7095 50.1364 55.3966ZM53.1904 61.1509C50.1362 61.1509 47.498 58.5844 47.498 55.3966C47.498 52.2088 50.1364 49.7045 53.1904 49.7045C54.4425 49.7045 55.556 50.0199 56.5262 50.7033V49.8286H59.3078V60.8976H56.5264V60.2094C55.6949 60.8355 54.4425 61.1509 53.1904 61.1509ZM90.2985 45.9144L76.9594 22.6486L86.5466 17.0186L103.222 45.9144M62.921 55.3966C62.921 57.1457 64.312 58.5844 66.1184 58.5844C67.7815 58.5844 69.3158 57.1457 69.3158 55.3966C69.3158 53.7095 67.7815 52.2088 66.1184 52.2088C64.3118 52.2088 62.921 53.7095 62.921 55.3966ZM65.9797 61.1509C62.7823 61.1509 60.2828 58.5844 60.2828 55.3966C60.2828 52.2088 62.7823 49.7045 65.9797 49.7045C67.2271 49.7045 68.3408 50.0199 69.3158 50.7033V46.0147H72.0926V60.8976H69.3156V60.2094C68.3405 60.8355 67.2273 61.1509 65.9797 61.1509ZM65.8428 32.7179L75.5686 27.217L86.2697 45.9137H76.1233V48.6666H73.3463V45.9137M111.001 48.7532C110.303 48.7532 109.61 48.1272 109.61 47.3768C109.61 46.6264 110.303 46.0003 111.001 46.0003C111.833 46.0003 112.392 46.6266 112.392 47.3768C112.392 48.1269 111.833 48.7532 111.001 48.7532ZM111.001 46.1917C110.303 46.1917 109.888 46.7507 109.888 47.3768C109.888 48.0029 110.303 48.5669 111.001 48.5669C111.694 48.5669 112.11 48.0031 112.11 47.3768C112.11 46.7505 111.694 46.1917 111.001 46.1917Z" fill="#A7A7A7"/>
<path d="M111.284 48.1348L111.007 47.5087H110.73V48.1348H110.52V46.6341H111.146C111.284 46.6341 111.561 46.8254 111.561 47.0738C111.561 47.3222 111.423 47.4467 111.284 47.5087L111.561 48.1348M111.007 46.8254H110.73V47.3224H111.007C111.284 47.3224 111.284 47.2604 111.284 47.0738C111.284 46.9449 111.284 46.8254 111.007 46.8254ZM92.6448 55.3995C92.6448 57.1486 94.0358 58.5873 95.8422 58.5873C97.5101 58.5873 99.0348 57.1486 99.0348 55.3995C99.0348 53.7124 97.5101 52.2117 95.8422 52.2117C94.0356 52.2117 92.6448 53.7124 92.6448 55.3995ZM95.699 61.1538C92.5063 61.1538 90.0066 58.5873 90.0066 55.3995C90.0066 52.2117 92.5064 49.7074 95.6987 49.7074C96.9511 49.7074 98.0646 50.0228 99.0348 50.7061V49.8315H101.678V60.9004H99.035V60.2123C98.0646 60.8384 96.9513 61.1538 95.699 61.1538ZM79.8698 55.3995C79.8698 57.1486 81.3991 58.5873 83.067 58.5873C84.8738 58.5873 86.2644 57.1486 86.2644 55.3995C86.2644 53.7124 84.8736 52.2117 83.067 52.2117C81.3991 52.2117 79.8698 53.7124 79.8698 55.3995ZM86.2644 46.0176H89.0412V60.9004H86.2644V60.2123C85.428 60.8384 84.3146 61.1538 83.067 61.1538C79.8698 61.1538 77.2314 58.5873 77.2314 55.3995C77.2314 52.2117 79.8698 49.7074 83.067 49.7074C84.3143 49.7074 85.428 50.0228 86.2644 50.7061V46.0176Z" fill="#A7A7A7"/>
</g>
<defs>
<clipPath id="clip0_91_2571">
<rect width="65.3047" height="44.1721" fill="white" transform="translate(47.5 17)"/>
</clipPath>
</defs>
</svg>
