<svg width="20" height="20" viewBox="0 0 20 20" fill="none" xmlns="http://www.w3.org/2000/svg">
<g id="vuesax/linear/bag">
<g id="bag">
<path id="Vector" d="M7.34162 1.66699L4.32495 4.69199" stroke="black" stroke-width="1.5" stroke-miterlimit="10" stroke-linecap="round" stroke-linejoin="round"/>
<path id="Vector_2" d="M12.6583 1.66699L15.675 4.69199" stroke="black" stroke-width="1.5" stroke-miterlimit="10" stroke-linecap="round" stroke-linejoin="round"/>
<path id="Vector_3" d="M1.66663 6.54167C1.66663 5 2.49163 4.875 3.51663 4.875H16.4833C17.5083 4.875 18.3333 5 18.3333 6.54167C18.3333 8.33333 17.5083 8.20833 16.4833 8.20833H3.51663C2.49163 8.20833 1.66663 8.33333 1.66663 6.54167Z" stroke="black" stroke-width="1.5"/>
<path id="Vector_4" d="M8.1333 11.667V14.6253" stroke="black" stroke-width="1.5" stroke-linecap="round"/>
<path id="Vector_5" d="M11.9667 11.667V14.6253" stroke="black" stroke-width="1.5" stroke-linecap="round"/>
<path id="Vector_6" d="M2.91663 8.33301L4.09163 15.533C4.35829 17.1497 4.99996 18.333 7.38329 18.333H12.4083C15 18.333 15.3833 17.1997 15.6833 15.633L17.0833 8.33301" stroke="black" stroke-width="1.5" stroke-linecap="round"/>
</g>
</g>
</svg>
