<svg width="21" height="21" viewBox="0 0 21 21" fill="none" xmlns="http://www.w3.org/2000/svg">
<g id="vuesax/linear/bag">
<g id="bag">
<path id="Vector" d="M7.84186 2.60693L4.8252 5.63193" stroke="white" stroke-width="1.5" stroke-miterlimit="10" stroke-linecap="round" stroke-linejoin="round"/>
<path id="Vector_2" d="M13.1582 2.60693L16.1749 5.63193" stroke="white" stroke-width="1.5" stroke-miterlimit="10" stroke-linecap="round" stroke-linejoin="round"/>
<path id="Vector_3" d="M2.1665 7.4821C2.1665 5.94043 2.9915 5.81543 4.0165 5.81543H16.9832C18.0082 5.81543 18.8332 5.94043 18.8332 7.4821C18.8332 9.27376 18.0082 9.14876 16.9832 9.14876H4.0165C2.9915 9.14876 2.1665 9.27376 2.1665 7.4821Z" stroke="white" stroke-width="1.5"/>
<path id="Vector_4" d="M8.6333 12.6069V15.5653" stroke="white" stroke-width="1.5" stroke-linecap="round"/>
<path id="Vector_5" d="M12.4668 12.6069V15.5653" stroke="white" stroke-width="1.5" stroke-linecap="round"/>
<path id="Vector_6" d="M3.4165 9.27393L4.5915 16.4739C4.85817 18.0906 5.49984 19.2739 7.88317 19.2739H12.9082C15.4998 19.2739 15.8832 18.1406 16.1832 16.5739L17.5832 9.27393" stroke="white" stroke-width="1.5" stroke-linecap="round"/>
</g>
</g>
</svg>
