<svg width="26" height="26" viewBox="0 0 26 26" fill="none" xmlns="http://www.w3.org/2000/svg">
<g id="Icon/close">
<path id="Union" fill-rule="evenodd" clip-rule="evenodd" d="M20.0303 7.03033C20.3232 6.73744 20.3232 6.26256 20.0303 5.96967C19.7374 5.67678 19.2626 5.67678 18.9697 5.96967L13 11.9393L7.03033 5.96967C6.73744 5.67678 6.26256 5.67678 5.96967 5.96967C5.67678 6.26256 5.67678 6.73744 5.96967 7.03033L11.9393 13L5.96967 18.9697C5.67678 19.2626 5.67678 19.7374 5.96967 20.0303C6.26256 20.3232 6.73744 20.3232 7.03033 20.0303L13 14.0607L18.9697 20.0303C19.2626 20.3232 19.7374 20.3232 20.0303 20.0303C20.3232 19.7374 20.3232 19.2626 20.0303 18.9697L14.0607 13L20.0303 7.03033Z" fill="#121212"/>
</g>
</svg>
