<svg width="14" height="15" viewBox="0 0 14 15" fill="none" xmlns="http://www.w3.org/2000/svg">
<g id="Icon/close">
<path id="Union" fill-rule="evenodd" clip-rule="evenodd" d="M10.8094 4.74979C10.9802 4.57893 10.9802 4.30192 10.8094 4.13107C10.6385 3.96022 10.3615 3.96022 10.1906 4.13107L7 7.32171L3.80936 4.13107C3.6385 3.96022 3.3615 3.96022 3.19064 4.13107C3.01979 4.30192 3.01979 4.57893 3.19064 4.74979L6.38128 7.94043L3.19064 11.1311C3.01979 11.3019 3.01979 11.5789 3.19064 11.7498C3.3615 11.9206 3.6385 11.9206 3.80936 11.7498L7 8.55915L10.1906 11.7498C10.3615 11.9206 10.6385 11.9206 10.8094 11.7498C10.9802 11.5789 10.9802 11.3019 10.8094 11.1311L7.61872 7.94043L10.8094 4.74979Z" fill="#605F5F"/>
</g>
</svg>
