<svg width="20" height="21" viewBox="0 0 20 21" fill="none" xmlns="http://www.w3.org/2000/svg">
<g id="Icon/truck">
<path id="Union" fill-rule="evenodd" clip-rule="evenodd" d="M1.6665 4.35645C1.25229 4.35645 0.916504 4.69223 0.916504 5.10645C0.916504 5.52066 1.25229 5.85645 1.6665 5.85645H10.0832V5.93978V10.1064V14.3564H8.1312C7.81564 13.3889 6.90605 12.6898 5.83317 12.6898C4.76029 12.6898 3.85071 13.3889 3.53514 14.3564H3.24984V11.7731C3.24984 11.3589 2.91405 11.0231 2.49984 11.0231C2.08562 11.0231 1.74984 11.3589 1.74984 11.7731V15.1064C1.74984 15.5207 2.08562 15.8564 2.49984 15.8564H3.53514C3.85071 16.824 4.76029 17.5231 5.83317 17.5231C6.90605 17.5231 7.81564 16.824 8.1312 15.8564H10.8332H11.8685C12.184 16.824 13.0936 17.5231 14.1665 17.5231C15.2394 17.5231 16.149 16.824 16.4645 15.8564H17.4998C17.9141 15.8564 18.2498 15.5207 18.2498 15.1064V10.1188C18.2511 10.0477 18.2422 9.97602 18.2227 9.90588C18.2034 9.83595 18.1741 9.77012 18.1366 9.70999L15.643 5.55391C15.5074 5.328 15.2633 5.18978 14.9998 5.18978H11.5832V5.10645C11.5832 4.69223 11.2474 4.35645 10.8332 4.35645H1.6665ZM16.4645 14.3564H16.7498V10.8564H11.5832V14.3564H11.8685C12.184 13.3889 13.0936 12.6898 14.1665 12.6898C15.2394 12.6898 16.149 13.3889 16.4645 14.3564ZM13.2498 15.1064C13.2498 14.6002 13.6602 14.1898 14.1665 14.1898C14.6728 14.1898 15.0832 14.6002 15.0832 15.1064C15.0832 15.6127 14.6728 16.0231 14.1665 16.0231C13.6602 16.0231 13.2498 15.6127 13.2498 15.1064ZM4.9165 15.1064C4.9165 15.6127 5.32691 16.0231 5.83317 16.0231C6.33943 16.0231 6.74984 15.6127 6.74984 15.1064C6.74984 14.6002 6.33943 14.1898 5.83317 14.1898C5.32691 14.1898 4.9165 14.6002 4.9165 15.1064ZM11.5832 9.35645V6.68978H14.5752L16.1752 9.35645H11.5832Z" fill="#121212"/>
</g>
</svg>
