<svg width="18" height="19" viewBox="0 0 18 19" fill="none" xmlns="http://www.w3.org/2000/svg">
<g id="Icon/help">
<path id="Union" fill-rule="evenodd" clip-rule="evenodd" d="M9.28223 3.90137C5.96852 3.90137 3.28223 6.58766 3.28223 9.90137C3.28223 13.2151 5.96852 15.9014 9.28223 15.9014C12.5959 15.9014 15.2822 13.2151 15.2822 9.90137C15.2822 6.58766 12.5959 3.90137 9.28223 3.90137ZM1.78223 9.90137C1.78223 5.75923 5.14009 2.40137 9.28223 2.40137C13.4244 2.40137 16.7822 5.75923 16.7822 9.90137C16.7822 14.0435 13.4244 17.4014 9.28223 17.4014C5.14009 17.4014 1.78223 14.0435 1.78223 9.90137ZM9.28223 12.9014C9.69644 12.9014 10.0322 13.2372 10.0322 13.6514V13.6589C10.0322 14.0731 9.69644 14.4089 9.28223 14.4089C8.86801 14.4089 8.53223 14.0731 8.53223 13.6589V13.6514C8.53223 13.2372 8.86801 12.9014 9.28223 12.9014ZM9.3432 5.38005C8.92531 5.37889 8.51285 5.47475 8.13829 5.66008C7.76374 5.84541 7.43732 6.11516 7.18473 6.44808C6.93437 6.77807 6.99892 7.24853 7.32891 7.49889C7.65889 7.74926 8.12936 7.68471 8.37972 7.35472C8.49198 7.20676 8.63706 7.08687 8.80353 7.0045C8.96999 6.92213 9.15331 6.87952 9.33904 6.88004C9.52477 6.88056 9.70785 6.92418 9.87386 7.00747C10.0399 7.09076 10.1843 7.21145 10.2957 7.36004C10.4072 7.50862 10.4826 7.68105 10.5161 7.86374C10.5495 8.04642 10.5401 8.23439 10.4886 8.41284C10.4371 8.59129 10.3449 8.75534 10.2192 8.89208C10.0953 9.02694 9.94211 9.13161 9.77151 9.1981C9.39319 9.33401 9.06844 9.58797 8.84533 9.92263C8.61988 10.2608 8.51042 10.6631 8.53343 11.0689C8.55688 11.4824 8.91115 11.7987 9.3247 11.7752C9.73824 11.7517 10.0545 11.3975 10.031 10.9839C10.0264 10.9028 10.0483 10.8223 10.0934 10.7547C10.1385 10.687 10.2043 10.6359 10.281 10.6089L10.3001 10.6019C10.6904 10.4527 11.0408 10.2148 11.3236 9.90715C11.6064 9.59947 11.8139 9.23035 11.9298 8.82884C12.0457 8.42734 12.0668 8.00441 11.9915 7.59336C11.9162 7.18231 11.7465 6.79435 11.4957 6.46004C11.245 6.12572 10.9201 5.85417 10.5465 5.66676C10.173 5.47935 9.7611 5.3812 9.3432 5.38005Z" fill="#121212"/>
</g>
</svg>
