<svg width="18" height="12" viewBox="0 0 18 12" fill="none" xmlns="http://www.w3.org/2000/svg">
<path id="Union" fill-rule="evenodd" clip-rule="evenodd" d="M1 2.36918C1 2.06879 1.08912 1.81698 1.20836 1.65258C1.32805 1.48754 1.45033 1.44043 1.53618 1.44043H2.76316V4.94043C2.76316 5.21657 2.98702 5.44043 3.26316 5.44043C3.5393 5.44043 3.76316 5.21657 3.76316 4.94043V1.44043H5.52632V3.94043C5.52632 4.21657 5.75017 4.44043 6.02632 4.44043C6.30246 4.44043 6.52632 4.21657 6.52632 3.94043V1.44043H8.28948V4.94043C8.28948 5.21657 8.51333 5.44043 8.78948 5.44043C9.06562 5.44043 9.28948 5.21657 9.28948 4.94043V1.44043H11.0526V3.94043C11.0526 4.21657 11.2765 4.44043 11.5526 4.44043C11.8288 4.44043 12.0526 4.21657 12.0526 3.94043V1.44043H13.8158V4.94043C13.8158 5.21657 14.0397 5.44043 14.3158 5.44043C14.5919 5.44043 14.8158 5.21657 14.8158 4.94043V1.44043H16.0428C16.1286 1.44043 16.2509 1.48754 16.3706 1.65258C16.4898 1.81698 16.5789 2.06879 16.5789 2.36918V9.51168C16.5789 9.81206 16.4898 10.0639 16.3706 10.2283C16.2509 10.3933 16.1286 10.4404 16.0428 10.4404H1.42105C1.36723 10.4404 1.27124 10.412 1.1723 10.2777C1.07146 10.1409 1 9.93063 1 9.69043V2.36918ZM11.5526 0.44043H14.3158H16.0428C16.5289 0.44043 16.9247 0.713315 17.1801 1.06547C17.436 1.41825 17.5789 1.88081 17.5789 2.36918V9.51168C17.5789 10 17.436 10.4626 17.1801 10.8154C16.9247 11.1675 16.5289 11.4404 16.0428 11.4404H1.42105C0.986318 11.4404 0.613763 11.2055 0.367242 10.8709C0.122623 10.5389 0 10.1133 0 9.69043V2.36918C0 1.88081 0.142986 1.41825 0.398848 1.06547C0.654253 0.713315 1.05006 0.44043 1.53618 0.44043H3.26316H6.02632H8.78948H11.5526Z" fill="#121212"/>
</svg>
