<svg width="18" height="19" viewBox="0 0 18 19" fill="none" xmlns="http://www.w3.org/2000/svg">
<g id="Icon/share">
<path id="Union" fill-rule="evenodd" clip-rule="evenodd" d="M13.2661 3.8623C12.4377 3.8623 11.7661 4.53388 11.7661 5.3623C11.7661 5.57651 11.811 5.78023 11.8919 5.96457C11.8974 5.97416 11.9027 5.98391 11.9078 5.99383C11.9191 6.01583 11.9293 6.03812 11.9382 6.06065C12.1895 6.53733 12.6898 6.8623 13.2661 6.8623C14.0945 6.8623 14.7661 6.19073 14.7661 5.3623C14.7661 4.53388 14.0945 3.8623 13.2661 3.8623ZM10.2661 5.3623C10.2661 5.56864 10.2869 5.7701 10.3266 5.96471L6.54599 7.91231C5.99577 7.26961 5.17851 6.8623 4.26611 6.8623C2.60926 6.8623 1.26611 8.20545 1.26611 9.8623C1.26611 11.5192 2.60926 12.8623 4.26611 12.8623C5.17851 12.8623 5.99578 12.455 6.546 11.8123L10.3266 13.7599C10.2869 13.9545 10.2661 14.156 10.2661 14.3623C10.2661 16.0192 11.6093 17.3623 13.2661 17.3623C14.923 17.3623 16.2661 16.0192 16.2661 14.3623C16.2661 12.7055 14.923 11.3623 13.2661 11.3623C12.3537 11.3623 11.5364 11.7696 10.9862 12.4123L7.20561 10.4647C7.24528 10.2701 7.26611 10.0686 7.26611 9.8623C7.26611 9.65596 7.24528 9.45447 7.2056 9.25984L10.9862 7.31226C11.5364 7.95499 12.3537 8.3623 13.2661 8.3623C14.923 8.3623 16.2661 7.01916 16.2661 5.3623C16.2661 3.70545 14.923 2.3623 13.2661 2.3623C11.6093 2.3623 10.2661 3.70545 10.2661 5.3623ZM5.64055 10.464C5.7213 10.2798 5.76611 10.0763 5.76611 9.8623C5.76611 9.64828 5.72129 9.44472 5.64052 9.26051C5.63493 9.25077 5.62954 9.24085 5.62435 9.23076C5.61293 9.20861 5.60273 9.18615 5.59371 9.16346C5.34241 8.68705 4.84219 8.3623 4.26611 8.3623C3.43769 8.3623 2.76611 9.03388 2.76611 9.8623C2.76611 10.6907 3.43769 11.3623 4.26611 11.3623C4.84216 11.3623 5.34237 11.0376 5.59368 10.5612C5.60271 10.5385 5.61292 10.516 5.62435 10.4938C5.62955 10.4837 5.63496 10.4738 5.64055 10.464ZM11.892 13.76C11.8974 13.7504 11.9027 13.7407 11.9078 13.7308C11.9191 13.7088 11.9292 13.6865 11.9382 13.664C12.1894 13.1873 12.6898 12.8623 13.2661 12.8623C14.0945 12.8623 14.7661 13.5339 14.7661 14.3623C14.7661 15.1907 14.0945 15.8623 13.2661 15.8623C12.4377 15.8623 11.7661 15.1907 11.7661 14.3623C11.7661 14.1481 11.811 13.9443 11.892 13.76Z" fill="#121212"/>
</g>
</svg>
