<svg width="18" height="19" viewBox="0 0 18 19" fill="none" xmlns="http://www.w3.org/2000/svg">
<g id="Icon/heart">
<path id="Vector" d="M14.1593 10.6073L9.00573 15.5654L3.85215 10.6073M3.85215 10.6073C3.51222 10.286 3.24447 9.89976 3.06574 9.47298C2.88702 9.0462 2.8012 8.58809 2.81369 8.12751C2.82618 7.66693 2.93671 7.21385 3.13831 6.7968C3.33992 6.37975 3.62823 6.00777 3.9851 5.70428C4.34197 5.40079 4.75966 5.17236 5.21187 5.03338C5.66409 4.8944 6.14103 4.84789 6.61266 4.89676C7.08429 4.94563 7.54039 5.08883 7.95225 5.31735C8.36411 5.54587 8.72279 5.85474 9.00573 6.22453C9.28988 5.85743 9.64899 5.55125 10.0606 5.32516C10.4721 5.09907 10.9273 4.95793 11.3976 4.91059C11.8679 4.86324 12.3432 4.91071 12.7938 5.05001C13.2443 5.18931 13.6605 5.41745 14.0161 5.72015C14.3717 6.02285 14.6592 6.3936 14.8605 6.80919C15.0618 7.22477 15.1727 7.67625 15.1861 8.13537C15.1996 8.59449 15.1153 9.05136 14.9386 9.47739C14.7619 9.90343 14.4966 10.2894 14.1593 10.6113" stroke="#121212" stroke-width="1.5" stroke-linecap="round" stroke-linejoin="round"/>
</g>
</svg>
