<svg width="20" height="21" viewBox="0 0 20 21" fill="none" xmlns="http://www.w3.org/2000/svg">
<g id="Icon/calendar">
<path id="Union" fill-rule="evenodd" clip-rule="evenodd" d="M13.5684 3.43994C13.5684 3.09476 13.2885 2.81494 12.9434 2.81494C12.5982 2.81494 12.3184 3.09476 12.3184 3.43994V4.48161H6.90169V3.43994C6.90169 3.09476 6.62187 2.81494 6.27669 2.81494C5.93151 2.81494 5.65169 3.09476 5.65169 3.43994V4.48161H4.61003C3.34437 4.48161 2.31836 5.50762 2.31836 6.77327V10.1066V16.7733C2.31836 18.0389 3.34437 19.0649 4.61003 19.0649H14.61C15.8757 19.0649 16.9017 18.0389 16.9017 16.7733V10.1066V6.77327C16.9017 5.50762 15.8757 4.48161 14.61 4.48161H13.5684V3.43994ZM15.6517 9.48161V6.77327C15.6517 6.19798 15.1853 5.73161 14.61 5.73161H13.5684V6.77327C13.5684 7.11845 13.2885 7.39827 12.9434 7.39827C12.5982 7.39827 12.3184 7.11845 12.3184 6.77327V5.73161H6.90169V6.77327C6.90169 7.11845 6.62187 7.39827 6.27669 7.39827C5.93151 7.39827 5.65169 7.11845 5.65169 6.77327V5.73161H4.61003C4.03473 5.73161 3.56836 6.19798 3.56836 6.77327V9.48161H15.6517ZM3.56836 10.7316H15.6517V16.7733C15.6517 17.3486 15.1853 17.8149 14.61 17.8149H4.61003C4.03473 17.8149 3.56836 17.3486 3.56836 16.7733V10.7316Z" fill="#121212"/>
</g>
</svg>
