<svg width="160" height="80" viewBox="0 0 160 80" fill="none" xmlns="http://www.w3.org/2000/svg">
<g id="Pieces/Logos">
<path id="Vector" d="M110.566 62.5531C110.204 62.2903 109.814 62.1948 109.403 62.374C108.98 62.5523 108.507 62.8886 108.507 62.8886C108.016 63.2443 107.671 63.2141 107.203 63.2412C106.345 63.3396 105.712 63.0842 104.682 63.2248C104.682 63.2248 105.083 62.5112 105.594 61.9822C105.829 61.809 106.247 61.697 106.445 61.5952C106.46 61.5369 106.493 61.3577 106.318 61.3562C106.318 61.3562 105.796 61.3742 105.523 61.5353C105.18 61.7374 104.923 62.0172 104.803 62.1575C104.803 62.1575 104.611 62.038 104.497 62.156C104.178 62.5122 104.243 62.4343 103.866 62.53C103.742 62.5422 103.398 62.3325 103.12 62.0723C102.907 62.1247 102.907 62.1843 102.782 62.1455C102.649 62.0299 102.426 61.9065 102.307 61.7744C102.402 61.5611 102.398 61.5533 102.504 61.2856C102.515 61.2606 102.502 61.2392 102.454 61.147C102.146 60.9855 101.99 60.8251 101.609 60.6024C99.3951 58.5515 95.5758 55.6546 93.194 54.1945C92.3841 53.6968 92.5008 53.61 91.4079 53.4398C90.834 52.7944 90.1943 52.2446 89.5888 51.7404C88.0835 50.4529 86.2586 49.7786 85.0504 49.1436C85.9083 47.906 84.3613 47.1242 83.7379 46.8383L83.2355 45.6486C83.811 43.545 83.8753 41.7186 83.6183 39.0359C83.5091 37.8967 82.7752 37.4318 82.5107 36.3195C82.252 35.2371 82.019 34.5165 82.264 33.4747C83.213 31.2475 83.1159 31.0381 83.1383 29.6315C83.3385 29.165 83.4057 28.9048 83.4597 27.9496C84.0542 26.6893 84.1154 25.8298 84.3472 24.7923C84.512 24.6696 84.7165 24.5741 84.8329 24.0733C84.9701 23.4888 85.0556 22.5768 85.0988 22.2047C85.1094 21.9294 85.0821 21.8742 84.985 21.7606C85.0123 20.9772 85.2032 19.5063 85.2391 19.0099C85.2899 18.8679 85.2931 18.726 85.2931 18.726C85.7504 17.4329 85.0777 17.4881 85.2675 17.1923C85.3319 17.1355 85.3767 17.1264 85.4514 17.1072C85.5644 17.1116 85.6801 17.11 85.7967 17.1011C87.6411 16.9712 89.0303 15.3716 88.9014 13.5269C88.7726 11.6822 87.1735 10.2917 85.327 10.4204C83.4826 10.5503 82.0888 12.1503 82.2222 13.9946C82.2783 14.7707 82.4797 15.3549 82.598 15.6119C82.7803 16.0156 83.049 16.5807 83.2988 17.0157C83.3866 17.1683 83.3629 17.3641 83.4137 17.5016C83.5721 17.9216 83.7051 18.161 83.4988 18.9069C83.4483 19.1775 83.1477 20.5049 82.9472 21.218C82.7154 21.2344 82.6631 21.4586 82.6631 21.4586C82.5047 22.0222 82.2386 22.8863 82.0682 23.5395C82.0355 23.7625 82.0188 23.8013 82.0964 23.9372C81.6581 24.9253 81.3296 25.112 81.4896 26.2392C81.3388 26.6385 81.1443 27.1693 80.9877 27.6849C80.821 28.2425 80.6921 28.791 80.5023 29.3486C79.6994 30.0348 79.6397 30.1497 79.3392 30.7732C79.3423 30.3891 79.1121 30.2169 78.9745 30.0317C78.9821 29.3738 79.0316 29.4785 78.1375 29.2407C78 28.8521 77.8789 29.0657 77.5531 28.7339C77.2137 28.3841 77.0119 28.0312 75.9462 27.8729C75.0928 27.8221 74.3901 28.1555 73.7234 28.8222C73.1223 29.4274 72.7681 30.2452 72.8653 31.2393C72.9567 32.1766 73.8969 32.8509 74.2646 33.2095C74.024 33.4863 74.0914 33.8793 73.7953 34.132C73.6055 34.3911 73.1122 34.7557 73.1122 34.7557C71.9581 34.8919 71.6473 35.7573 71.3512 36.2222C71.2345 36.4197 71.1181 36.6004 70.9954 36.8082C70.68 37.3494 70.3602 37.9339 70.1493 38.4302C69.194 39.2779 69.0042 40.4692 69.0042 40.4692C68.2703 41.2135 67.6872 42.0459 67.2178 42.7604C66.2029 44.3108 65.8859 45.3119 65.5794 45.9445C65.2656 46.3618 64.9666 46.6026 64.6124 47.0104C64.4001 47.1211 64.0144 47.6832 64.0144 47.6832C63.6587 47.8597 63.0248 48.2347 62.6914 48.3647C62.0007 48.5486 61.1098 48.6536 60.754 48.6504C60.473 48.6488 60.579 48.9265 60.6957 48.997C60.8108 49.0677 61.7093 49.1856 61.7093 49.1856C62.1426 49.2332 62.7466 49.142 63.1563 48.9957C63.5313 48.8626 63.3357 49.1288 63.3357 49.1288C62.9559 49.3721 62.6481 49.477 62.4328 49.5607C61.9692 49.8703 62.4851 50.105 62.9559 49.9766C63.4553 49.811 63.9557 49.648 64.4569 49.4875C64.5704 49.5716 64.3792 49.7571 64.2714 49.9813C64.2026 50.1249 64.1714 50.3235 64.273 50.3907C65.0415 50.5087 65.2178 49.5998 65.6887 49.2917C66.3033 49.0825 65.9996 49.7089 66.9609 49.8615C67.2107 49.9064 67.7383 49.9722 67.7771 49.5701C67.7938 49.2488 67.5052 49.261 67.2166 49.1847C67.0494 49.143 66.9132 48.9471 66.8609 48.7993C66.8609 48.7993 66.8281 48.7604 66.9536 48.3687C66.8669 48.1041 66.8088 47.6106 66.9731 47.258C66.9686 47.2757 67.2737 46.086 68.2274 45.0182C70.6297 43.5223 70.9287 42.7563 71.7777 40.9469C72.2532 40.7946 72.5447 40.7433 72.8121 40.0531C72.933 40.0635 73.0408 40.0586 73.1276 40.0723C73.2112 40.0837 73.2742 40.1124 73.3503 40.1108C73.5161 40.4801 74.0469 41.2684 74.3308 41.6062C74.1412 42.2208 74.8092 42.6917 74.8228 42.7485C74.8975 43.2376 75.011 43.8053 75.2861 44.484C74.8796 44.9712 74.9707 44.8476 74.6058 45.363C72.8885 45.4721 73.5612 47.6324 73.3579 48.4407C73.1485 48.8325 73.0422 48.8325 72.5745 49.2075C71.9841 49.3718 71.7882 49.2849 71.3369 50.1029C70.7822 50.4063 68.3664 52.3088 67.1048 54.4392C66.0435 54.541 65.5784 54.9444 65.1002 55.5515C63.6337 56.1333 61.3257 57.3034 59.2972 58.9718C58.2805 59.8091 57.7976 60.2682 56.8574 61.3071C56.515 61.6866 56.3222 61.7885 56.1623 61.9307C55.929 62.1401 56.1951 62.4091 56.1951 62.4091C56.0248 62.5167 56.0112 62.5167 55.7271 62.7839L55.3922 62.4927C54.9228 62.3596 54.8781 62.9813 54.6479 63.2147C54.2577 63.5033 54.1353 62.992 54.0993 62.5972C54.0993 62.5972 54.017 62.2471 53.9154 62.1289C53.8586 62.0651 53.8243 61.9888 53.718 62.0452C53.618 62.0976 53.5776 62.177 53.5357 62.3416C53.5073 62.4942 53.6372 62.7469 53.7255 62.9516C53.6656 63.4625 53.8643 63.5717 53.8959 63.8035C53.9047 63.8712 53.8659 63.8871 53.7852 63.9337C53.5938 63.7965 53.5474 63.7602 53.2904 63.9818C53.0841 64.161 53.0362 64.1402 53.0737 64.5853C52.9257 64.6376 52.6372 64.8085 52.3562 64.9236C52.0242 64.892 51.9362 64.9804 51.9362 64.9804C51.9362 64.9804 51.5997 65.1072 51.2544 65.221C51.0661 65.2822 50.9255 65.3061 50.8254 65.3736C50.3889 65.4108 50.3889 65.3553 50.1723 65.4332C49.7983 65.5674 49.8554 65.4462 49.6459 65.5254C49.2243 65.5543 49.1779 65.6738 48.9269 65.8335C48.3245 66.2646 48.2122 66.5528 48.4052 67.0089C48.4052 67.0089 48.9641 67.9118 49.5712 68.3798C49.9569 68.6785 50.5893 68.7819 51.1125 68.6832C51.4099 68.6269 51.6357 68.4323 51.7896 68.3618C52.9796 67.818 53.0483 68.5467 54.0395 68.2048C54.1531 68.2063 54.7825 67.7201 54.7615 67.387C55.1052 67.4039 54.9901 67.0161 55.4401 66.695C56.2176 66.6411 56.2189 65.8859 56.5433 65.6186C56.6089 65.5615 56.6493 65.4586 56.7344 65.4259C57.1381 65.2821 56.9423 65.353 57.1337 65.0566C57.4251 64.7246 57.467 64.8738 57.8004 64.5853C57.9751 64.5943 58.0157 64.678 58.4939 64.3311C58.6121 64.2444 58.7541 64.1504 58.938 63.9993C59.6 64.2806 59.5763 64.1324 59.9245 63.8202C59.9245 63.8202 60.3775 63.442 60.9769 62.9935C61.7528 62.4104 62.7437 61.7033 63.0219 61.4793C63.5094 61.3296 64.5663 60.66 65.1103 60.4014C66.2089 59.7855 68.0087 58.5419 68.8893 57.8231C69.9042 57.4611 71.7624 56.5298 71.7624 56.5298C72.414 56.2185 73.0479 55.9198 73.5966 55.6029C74.205 55.2526 74.779 54.9062 75.4025 54.5729C76.0723 54.2125 76.7974 53.864 77.5717 53.4606C77.7149 53.4124 77.9183 53.2871 78.2353 53.36C78.3728 53.3916 78.4939 53.4947 78.7033 53.6025C79.307 53.9549 80.4582 54.3002 80.7003 54.3242C81.335 54.4708 82.1541 54.834 83.1094 55.2375C83.5352 55.4206 83.966 55.5402 84.4605 55.7745C85.5053 56.2974 86.6028 56.7354 87.661 56.867C88.3111 56.9539 88.5447 57.0448 88.8015 57.1152C89.0528 57.1853 89.3275 57.2379 89.8299 57.3303C90.1653 57.6071 90.712 57.8267 91.1696 58.0597C91.5956 58.2766 94.1088 60.175 95.1563 61.0141C95.7429 61.449 96.152 61.592 96.4168 61.5967C98.7383 63.2439 98.9399 63.7898 99.8189 63.6073L100.587 64.2232C100.618 64.3836 101.485 65.2233 101.689 65.2699C101.691 65.5115 102.653 66.6387 102.866 66.6658C102.808 66.6588 102.952 67.0844 103.143 67.4565C103.318 67.7977 103.424 67.9573 103.424 67.9573C103.656 68.3847 103.767 68.5793 104.122 68.3459C104.268 68.2487 104.57 68.0667 104.684 67.9649C105.585 67.1484 105.315 67.3639 106.461 66.54C106.916 66.3338 107.644 65.884 108.285 65.3832C108.919 64.8878 109.53 64.2894 109.985 63.8404C110.243 63.5847 110.446 63.4081 110.587 63.25C110.975 62.843 110.821 62.8415 110.566 62.5531Z" fill="#A7A7A7"/>
</g>
</svg>
