<svg width="67" height="38" viewBox="0 0 67 38" fill="none" xmlns="http://www.w3.org/2000/svg">
<path d="M11.3379 10.4766C11.5137 10.8086 11.6016 11.1211 11.6016 11.4141C11.6016 11.6875 11.4844 11.9316 11.25 12.1465C11.0352 12.3418 10.752 12.4395 10.4004 12.4395C10.166 12.4395 9.95117 12.3906 9.75586 12.293C8.99414 11.6484 8.16406 11.3262 7.26562 11.3262C6.25 11.3262 5.39062 11.7363 4.6875 12.5566C4.66797 12.6348 4.63867 12.7227 4.59961 12.8203C4.58008 12.918 4.55078 13.0059 4.51172 13.084C4.51172 13.9043 4.72656 14.5879 5.15625 15.1348C5.58594 15.6621 6.12305 16.1406 6.76758 16.5703C7.41211 16.9805 8.10547 17.3711 8.84766 17.7422C9.58984 18.1133 10.2832 18.543 10.9277 19.0312C11.5723 19.5195 12.1094 20.1152 12.5391 20.8184C12.9688 21.502 13.1836 22.3613 13.1836 23.3965C13.1836 24.2559 12.9785 24.9785 12.5684 25.5645C12.1777 26.1504 11.6797 26.6289 11.0742 27C10.4688 27.3516 9.82422 27.6055 9.14062 27.7617C8.45703 27.9375 7.82227 28.0254 7.23633 28.0254C6.2207 28.0254 5.22461 27.8105 4.24805 27.3809C3.27148 26.9707 2.42188 26.3457 1.69922 25.5059C1.54297 25.291 1.38672 25.0176 1.23047 24.6855C1.07422 24.3535 0.996094 24.0312 0.996094 23.7188C0.996094 23.3867 1.09375 23.1035 1.28906 22.8691C1.50391 22.6152 1.80664 22.4883 2.19727 22.4883C2.56836 22.4883 2.86133 22.6543 3.07617 22.9863C3.31055 23.2988 3.51562 23.6895 3.69141 24.1582C4.19922 24.666 4.74609 25.0469 5.33203 25.3008C5.91797 25.5352 6.52344 25.6523 7.14844 25.6523C7.38281 25.6523 7.67578 25.6328 8.02734 25.5938C8.37891 25.5352 8.7207 25.4473 9.05273 25.3301C9.4043 25.2129 9.7168 25.0664 9.99023 24.8906C10.2832 24.6953 10.4883 24.4609 10.6055 24.1875C10.6445 24.0312 10.6738 23.9043 10.6934 23.8066C10.7324 23.6895 10.7715 23.582 10.8105 23.4844C10.6934 22.8203 10.4492 22.2441 10.0781 21.7559C9.72656 21.2676 9.30664 20.8379 8.81836 20.4668C8.33008 20.0957 7.8125 19.7734 7.26562 19.5C6.73828 19.2266 6.25 18.9629 5.80078 18.709C5 18.2598 4.27734 17.7227 3.63281 17.0977C2.98828 16.4531 2.5 15.5254 2.16797 14.3145C2.07031 13.9629 2.02148 13.6309 2.02148 13.3184C2.02148 12.6543 2.1875 12.0488 2.51953 11.502C2.85156 10.9551 3.28125 10.4961 3.80859 10.125C4.33594 9.73437 4.93164 9.43164 5.5957 9.2168C6.25977 9.00195 6.93359 8.89453 7.61719 8.89453C8.41797 8.89453 9.11133 9.04102 9.69727 9.33398C10.2832 9.60742 10.8301 9.98828 11.3379 10.4766ZM25.8691 21.1113C25.9082 20.916 25.9277 20.8281 25.9277 20.8477C25.6934 21.082 25.4785 21.209 25.2832 21.2285H21.4746C20.3418 21.2285 19.2676 21.1992 18.252 21.1406C18.291 21.9609 18.3203 22.8008 18.3398 23.6602C18.3594 24.5195 18.3691 25.4082 18.3691 26.3262C18.3691 26.6582 18.252 26.9219 18.0176 27.1172C17.7832 27.332 17.5293 27.4395 17.2559 27.4395C16.9824 27.4395 16.6992 27.3516 16.4062 27.1758C16.1328 27 15.9961 26.6973 15.9961 26.2676C15.9961 23.8457 15.918 21.4629 15.7617 19.1191C15.6055 16.7559 15.4883 14.3535 15.4102 11.9121C15.5078 11.5605 15.6543 11.2969 15.8496 11.1211C16.0449 10.9453 16.2891 10.8379 16.582 10.7988C17.1484 10.7988 17.5586 11.1504 17.8125 11.8535C17.8516 13.0449 17.8906 14.2168 17.9297 15.3691C17.9883 16.502 18.0566 17.625 18.1348 18.7383C19.209 18.7969 20.3516 18.8262 21.5625 18.8262H25.3418C25.5371 18.9043 25.7227 19.0508 25.8984 19.2656C25.918 19.2656 25.9277 19.207 25.9277 19.0898V18.8555C25.9473 18.3867 25.957 17.8398 25.957 17.2148C25.9766 16.5703 25.9961 15.8867 26.0156 15.1641C26.0547 14.4219 26.0938 13.6699 26.1328 12.9082C26.1914 12.127 26.25 11.3848 26.3086 10.6816C26.4062 10.3301 26.5723 10.0664 26.8066 9.89062C27.0605 9.69531 27.3047 9.59766 27.5391 9.59766C27.8516 9.59766 28.1152 9.72461 28.3301 9.97852C28.5645 10.2129 28.6816 10.5352 28.6816 10.9453C28.5645 12.5469 28.4766 14.1289 28.418 15.6914C28.3789 17.2539 28.3301 18.8652 28.2715 20.5254L28.0957 23.7773C28.0762 24.0312 28.0566 24.3926 28.0371 24.8613C28.0176 25.3105 27.959 25.7598 27.8613 26.209C27.7637 26.6387 27.6074 27.0195 27.3926 27.3516C27.1973 27.6836 26.8945 27.8496 26.4844 27.8496C26.1914 27.8496 25.9277 27.7422 25.6934 27.5273C25.459 27.332 25.3418 27.0195 25.3418 26.5898C25.3418 26.4531 25.3516 26.3555 25.3711 26.2969C25.4492 25.9453 25.5078 25.4961 25.5469 24.9492C25.6055 24.3828 25.6543 23.8359 25.6934 23.3086C25.752 22.7617 25.791 22.2832 25.8105 21.873C25.8301 21.4434 25.8496 21.1895 25.8691 21.1113Z" fill="black"/>
<path d="M37.5879 9.80273C37.7637 9.80273 37.9297 9.82227 38.0859 9.86133C38.2227 9.72461 38.457 9.65625 38.7891 9.65625C39.2578 9.65625 39.6094 9.8418 39.8438 10.2129L40.459 11.2383C40.9473 11.7266 41.3477 12.293 41.6602 12.9375C41.9922 13.5625 42.2559 14.2168 42.4512 14.9004C42.6465 15.584 42.7832 16.2676 42.8613 16.9512C42.9395 17.6348 42.9785 18.2695 42.9785 18.8555C42.9785 19.8516 42.832 20.8867 42.5391 21.9609C42.2461 23.0352 41.7188 24.0117 40.957 24.8906C40.2539 25.7891 39.6191 26.4434 39.0527 26.8535C38.4863 27.2441 37.8027 27.4395 37.002 27.4395C36.6699 27.4395 36.2402 27.4004 35.7129 27.3223C35.2051 27.2441 34.6777 27.0781 34.1309 26.8242C33.6035 26.5703 33.1055 26.1992 32.6367 25.7109C32.168 25.2227 31.8262 24.5684 31.6113 23.748C31.416 23.0645 31.2695 22.4688 31.1719 21.9609C31.0938 21.4336 31.0547 20.9062 31.0547 20.3789C31.0547 19.4414 31.1328 18.5234 31.2891 17.625C31.4648 16.707 31.6992 15.8574 31.9922 15.0762C32.2852 14.2754 32.6367 13.5625 33.0469 12.9375C33.4766 12.3125 33.9453 11.8145 34.4531 11.4434C35.2734 10.8574 36.3184 10.3105 37.5879 9.80273ZM38.2324 12.1172L37.4121 12.3809C36.8652 12.5566 36.3867 12.8496 35.9766 13.2598C35.5664 13.6504 35.2148 14.0996 34.9219 14.6074C34.6289 15.1152 34.3848 15.6523 34.1895 16.2188C33.9941 16.7656 33.8379 17.293 33.7207 17.8008C33.6035 18.3086 33.5156 18.7578 33.457 19.1484C33.418 19.5391 33.3984 19.8125 33.3984 19.9688C33.3984 21.3359 33.7793 22.752 34.541 24.2168C34.9121 24.5293 35.2832 24.7637 35.6543 24.9199C36.0449 25.0762 36.543 25.1543 37.1484 25.1543C37.1875 25.1543 37.2461 25.1348 37.3242 25.0957L37.5 25.0371C37.5391 25.0176 37.5781 24.998 37.6172 24.9785C37.6562 24.959 37.6953 24.9297 37.7344 24.8906L38.1152 24.5684C38.1934 24.5488 38.252 24.4902 38.291 24.3926C38.6426 24.002 38.9551 23.6113 39.2285 23.2207C39.5215 22.8301 39.7656 22.4102 39.9609 21.9609C40.1758 21.4922 40.332 20.9941 40.4297 20.4668C40.5469 19.9199 40.6055 19.3047 40.6055 18.6211C40.6055 17.7227 40.4785 16.834 40.2246 15.9551C39.9902 15.0566 39.6484 14.2266 39.1992 13.4648C38.8672 13.0352 38.6426 12.7617 38.5254 12.6445C38.4277 12.5078 38.3496 12.3613 38.291 12.2051L38.2324 12.1172ZM43.5508 26.8535C43.375 26.6191 43.2285 26.3359 43.1113 26.0039C43.0137 25.6719 42.9355 25.3203 42.877 24.9492C42.8184 24.5781 42.7695 24.1973 42.7305 23.8066C42.7109 23.416 42.6914 23.0449 42.6719 22.6934L42.4961 19.1777C42.4375 18.6113 42.3887 18.1816 42.3496 17.8887C42.3301 17.5957 42.3008 17.3027 42.2617 17.0098C42.2422 16.6973 42.2227 16.3262 42.2031 15.8965C42.2031 15.4473 42.2031 14.793 42.2031 13.9336C42.2031 13.6406 42.1934 13.3574 42.1738 13.084C42.1738 12.8105 42.1738 12.5371 42.1738 12.2637C42.1738 11.5605 42.3496 11.082 42.7012 10.8281C43.0723 10.5547 43.541 10.418 44.1074 10.418C44.4395 10.418 44.791 10.4375 45.1621 10.4766C45.5332 10.4961 45.9043 10.5059 46.2754 10.5059C46.959 10.5059 47.6328 10.418 48.2969 10.2422C48.9609 10.0469 49.6055 9.89062 50.2305 9.77344C50.6211 9.77344 50.9531 9.88086 51.2266 10.0957C51.5 10.291 51.6367 10.5352 51.6367 10.8281C51.6367 11.1016 51.5488 11.375 51.373 11.6484C51.1973 11.9023 50.9141 12.0684 50.5234 12.1465C49.7617 12.3027 48.9805 12.4785 48.1797 12.6738C47.3789 12.8691 46.5684 12.9668 45.748 12.9668C45.5332 12.9668 45.3184 12.9668 45.1035 12.9668C44.8887 12.9668 44.7031 12.9473 44.5469 12.9082C44.5664 13.6504 44.5859 14.3633 44.6055 15.0469C44.625 15.7305 44.6543 16.3945 44.6934 17.0391H44.7227C46.207 16.8828 47.6035 16.7949 48.9121 16.7754C50.2207 16.7363 51.6074 16.7168 53.0723 16.7168C53.7949 16.9121 54.1562 17.3125 54.1562 17.918C54.1562 18.1914 54.0488 18.4453 53.834 18.6797C53.6387 18.8945 53.3652 19.0312 53.0137 19.0898C52.8574 19.0898 52.5449 19.0898 52.0762 19.0898C51.627 19.0898 51.0996 19.0996 50.4941 19.1191C49.8887 19.1191 49.2539 19.1289 48.5898 19.1484C47.9258 19.1484 47.3105 19.168 46.7441 19.207C46.1973 19.2266 45.7383 19.2559 45.3672 19.2949C45.0156 19.334 44.8398 19.3828 44.8398 19.4414C44.8398 20.3203 44.8887 21.1992 44.9863 22.0781C45.1035 22.9375 45.2012 23.7871 45.2793 24.627C45.8066 24.4316 46.3828 24.2656 47.0078 24.1289C47.6328 23.9727 48.2773 23.8555 48.9414 23.7773C49.625 23.6992 50.3184 23.6406 51.0215 23.6016C51.7246 23.5625 52.4082 23.543 53.0723 23.543C53.4629 23.6992 53.7363 23.8848 53.8926 24.0996C54.0684 24.2949 54.1562 24.5195 54.1562 24.7734C54.1562 25.0469 54.0488 25.3008 53.834 25.5352C53.6387 25.75 53.3652 25.8867 53.0137 25.9453C52.1152 25.9453 51.1777 26.0137 50.2012 26.1504C49.2246 26.2676 48.3164 26.4141 47.4766 26.5898C46.6562 26.7461 45.9531 26.8828 45.3672 27C44.7812 27.1367 44.4297 27.2051 44.3125 27.2051C44.2148 27.2051 44.0977 27.166 43.9609 27.0879C43.8438 27.0293 43.707 26.9512 43.5508 26.8535ZM54.5449 10.4473C54.252 10.7012 54.0078 10.8574 53.8125 10.916C53.6172 10.9746 53.4121 11.0137 53.1973 11.0332C52.6113 10.9355 52.1816 10.6816 51.9082 10.2715C51.6348 9.8418 51.498 9.35352 51.498 8.80664C51.498 8.61133 51.5273 8.39648 51.5859 8.16211C51.6641 7.92773 51.7812 7.71289 51.9375 7.51758C52.0938 7.32227 52.3086 7.16602 52.582 7.04883C52.8555 6.91211 53.1973 6.84375 53.6074 6.84375C54.4277 6.84375 55.0918 7.19531 55.5996 7.89844C56.1074 8.58203 56.3613 9.50977 56.3613 10.6816C56.3613 11.209 56.2734 11.6973 56.0977 12.1465C55.9219 12.5957 55.6875 12.9961 55.3945 13.3477C55.1016 13.6992 54.7598 13.9824 54.3691 14.1973C53.9785 14.4121 53.5684 14.5293 53.1387 14.5488C52.7676 14.5488 52.5039 14.4512 52.3477 14.2559C52.2109 14.041 52.1426 13.8066 52.1426 13.5527C52.1426 13.3184 52.2109 13.0938 52.3477 12.8789C52.5039 12.6641 52.7578 12.5566 53.1094 12.5566C53.4609 12.5566 53.7832 12.4102 54.0762 12.1172C54.3887 11.8047 54.5449 11.3359 54.5449 10.7109V10.4473Z" fill="black"/>
<path d="M64.6689 4.73828C64.7568 4.9043 64.8008 5.06055 64.8008 5.20703C64.8008 5.34375 64.7422 5.46582 64.625 5.57324C64.5176 5.6709 64.376 5.71973 64.2002 5.71973C64.083 5.71973 63.9756 5.69531 63.8779 5.64648C63.4971 5.32422 63.082 5.16309 62.6328 5.16309C62.125 5.16309 61.6953 5.36816 61.3438 5.77832C61.334 5.81738 61.3193 5.86133 61.2998 5.91016C61.29 5.95898 61.2754 6.00293 61.2559 6.04199C61.2559 6.45215 61.3633 6.79395 61.5781 7.06738C61.793 7.33105 62.0615 7.57031 62.3838 7.78516C62.7061 7.99023 63.0527 8.18555 63.4238 8.37109C63.7949 8.55664 64.1416 8.77148 64.4639 9.01562C64.7861 9.25977 65.0547 9.55762 65.2695 9.90918C65.4844 10.251 65.5918 10.6807 65.5918 11.1982C65.5918 11.6279 65.4893 11.9893 65.2842 12.2822C65.0889 12.5752 64.8398 12.8145 64.5371 13C64.2344 13.1758 63.9121 13.3027 63.5703 13.3809C63.2285 13.4688 62.9111 13.5127 62.6182 13.5127C62.1104 13.5127 61.6123 13.4053 61.124 13.1904C60.6357 12.9854 60.2109 12.6729 59.8496 12.2529C59.7715 12.1455 59.6934 12.0088 59.6152 11.8428C59.5371 11.6768 59.498 11.5156 59.498 11.3594C59.498 11.1934 59.5469 11.0518 59.6445 10.9346C59.752 10.8076 59.9033 10.7441 60.0986 10.7441C60.2842 10.7441 60.4307 10.8271 60.5381 10.9932C60.6553 11.1494 60.7578 11.3447 60.8457 11.5791C61.0996 11.833 61.373 12.0234 61.666 12.1504C61.959 12.2676 62.2617 12.3262 62.5742 12.3262C62.6914 12.3262 62.8379 12.3164 63.0137 12.2969C63.1895 12.2676 63.3604 12.2236 63.5264 12.165C63.7021 12.1064 63.8584 12.0332 63.9951 11.9453C64.1416 11.8477 64.2441 11.7305 64.3027 11.5938C64.3223 11.5156 64.3369 11.4521 64.3467 11.4033C64.3662 11.3447 64.3857 11.291 64.4053 11.2422C64.3467 10.9102 64.2246 10.6221 64.0391 10.3779C63.8633 10.1338 63.6533 9.91895 63.4092 9.7334C63.165 9.54785 62.9062 9.38672 62.6328 9.25C62.3691 9.11328 62.125 8.98145 61.9004 8.85449C61.5 8.62988 61.1387 8.36133 60.8164 8.04883C60.4941 7.72656 60.25 7.2627 60.084 6.65723C60.0352 6.48145 60.0107 6.31543 60.0107 6.15918C60.0107 5.82715 60.0938 5.52441 60.2598 5.25098C60.4258 4.97754 60.6406 4.74805 60.9043 4.5625C61.168 4.36719 61.4658 4.21582 61.7979 4.1084C62.1299 4.00098 62.4668 3.94727 62.8086 3.94727C63.209 3.94727 63.5557 4.02051 63.8486 4.16699C64.1416 4.30371 64.415 4.49414 64.6689 4.73828Z" fill="black"/>
</svg>
