<svg width="56" height="18" viewBox="0 0 56 18" fill="none" xmlns="http://www.w3.org/2000/svg">
<g id="Logo_NIKE 1" clip-path="url(#clip0_39_1424)">
<path id="Vector" d="M6.17722 17.9929C4.50865 17.9331 3.14351 17.5213 2.07608 16.7565C1.87237 16.6104 1.38694 16.1724 1.22408 15.9876C0.791228 15.4967 0.496942 15.019 0.300657 14.4889C-0.303343 12.8572 0.00751419 10.7161 1.1898 8.36628C2.20208 6.35453 3.76408 4.35927 6.48922 1.59585C6.89065 1.18921 8.08607 0 8.09379 0C8.09665 0 8.0315 0.101785 7.9495 0.225733C7.24093 1.29616 6.63465 2.55701 6.30436 3.64857C5.77379 5.40006 5.83779 6.90314 6.49179 8.06865C6.94293 8.8716 7.71636 9.5671 8.58607 9.95156C10.1086 10.6244 12.3378 10.68 15.0601 10.1144C15.2475 10.0753 24.5349 7.85168 35.6989 5.17304C46.8629 2.49413 55.9986 0.304069 56 0.305872C56.0031 0.308195 30.0629 10.3193 16.5969 15.5129C14.4644 16.3352 13.8941 16.5429 12.8915 16.8604C10.3286 17.6721 8.03293 18.0594 6.17722 17.9929Z" fill="black"/>
</g>
<defs>
<clipPath id="clip0_39_1424">
<rect width="56" height="18" fill="white"/>
</clipPath>
</defs>
</svg>
