<svg width="160" height="80" viewBox="0 0 160 80" fill="none" xmlns="http://www.w3.org/2000/svg">
<path d="M63.9609 51.6188C63.1869 51.5999 62.5299 50.9733 62.5299 50.1987L62.5314 24.8887H54.081V52.7875C54.081 54.1555 55.203 55.2705 56.5812 55.2705H71.3513C72.7372 55.2705 73.8462 54.1547 73.8462 52.7875V24.8887H65.4026L65.3957 50.1987C65.3965 50.9733 64.7379 51.5999 63.9609 51.6188ZM92.2523 24.8887H79.4645C79.1029 24.8893 78.745 24.9602 78.4112 25.0975C78.0774 25.2347 77.7743 25.4356 77.5192 25.6886C77.2641 25.9416 77.0621 26.2417 76.9246 26.5719C76.7871 26.902 76.717 27.2556 76.7181 27.6126V55.2705H85.177V29.9016C85.178 29.7174 85.2157 29.5352 85.2882 29.3654C85.3606 29.1957 85.4662 29.0417 85.5989 28.9122C85.7317 28.7828 85.889 28.6804 86.0619 28.6111C86.2348 28.5417 86.4198 28.5067 86.6064 28.508C87.3957 28.508 88.029 29.1089 88.0473 29.8797V55.2713H96.4695V29.879C96.4817 29.1081 97.1135 28.5072 97.902 28.5072C98.6829 28.5072 99.3284 29.1232 99.3345 29.9009V55.2705H107.794V27.6126C107.795 27.2555 107.725 26.9018 107.587 26.5717C107.449 26.2415 107.247 25.9414 106.992 25.6885C106.736 25.4355 106.433 25.2347 106.099 25.0974C105.765 24.9602 105.407 24.8893 105.045 24.8887H92.2523ZM48.4443 47.6364H39.9073V55.2705H31.4607V24.8887H48.4978C50.0228 24.8887 51.2137 26.1125 51.2137 27.6246V44.8966C51.2148 45.2562 51.1439 45.6125 51.0052 45.945C50.8665 46.2775 50.6627 46.5797 50.4054 46.8342C50.1481 47.0888 49.8424 47.2907 49.5058 47.4283C49.1693 47.566 48.8085 47.6367 48.4443 47.6364ZM42.7731 29.9537C42.7758 29.766 42.7408 29.5796 42.6704 29.4053C42.5999 29.2309 42.4953 29.072 42.3625 28.9376C42.2297 28.8033 42.0714 28.6961 41.8965 28.6222C41.7217 28.5484 41.5338 28.5093 41.3437 28.5072H39.9073V43.8744H41.3437C42.0878 43.8744 42.78 43.2901 42.7731 42.4468V29.9537Z" fill="#A7A7A7"/>
<path d="M120.601 55.4009V47.7876H117.674V55.4009H109.078V27.7967C109.078 26.2897 110.332 25.0781 111.876 25.0781H126.4C126.769 25.0784 127.134 25.149 127.474 25.2859C127.814 25.4227 128.123 25.6231 128.383 25.8756C128.643 26.1282 128.849 26.4278 128.99 26.7575C129.13 27.0871 129.202 27.4403 129.201 27.7967V55.4009H120.601ZM120.601 44.0329V30.07C120.58 29.2984 119.936 28.7047 119.133 28.7047C118.75 28.704 118.383 28.8492 118.11 29.1088C117.837 29.3684 117.68 29.7216 117.674 30.0919V44.0329H120.601Z" fill="#A7A7A7"/>
</svg>
