<svg width="88" height="16" viewBox="0 0 88 16" fill="none" xmlns="http://www.w3.org/2000/svg">
<path d="M80 1.30198L81.5371 4.99757C81.6811 5.34381 82.0067 5.58038 82.3805 5.61034L86.3702 5.9302L83.3305 8.53405C83.0457 8.77801 82.9213 9.16078 83.0083 9.52554L83.937 13.4188L80.5213 11.3325C80.2012 11.137 79.7988 11.137 79.4787 11.3325L76.063 13.4188L76.9917 9.52554C77.0787 9.16078 76.9543 8.778 76.6695 8.53405L73.6298 5.9302L77.6195 5.61034C77.9933 5.58038 78.3189 5.34381 78.4629 4.99757L80 1.30198Z" stroke="#A7A7A7"/>
<path d="M61.5383 1.10997C61.7091 0.699319 62.2909 0.699318 62.4617 1.10996L63.9987 4.80556C64.0707 4.97868 64.2336 5.09696 64.4204 5.11194L68.4102 5.4318C68.8535 5.46734 69.0332 6.02059 68.6955 6.30993L65.6557 8.91378C65.5133 9.03576 65.4512 9.22715 65.4947 9.40952L66.4234 13.3028C66.5265 13.7354 66.0559 14.0773 65.6764 13.8455L62.2606 11.7592C62.1006 11.6615 61.8994 11.6615 61.7394 11.7592L58.3236 13.8455C57.9441 14.0773 57.4735 13.7354 57.5766 13.3028L58.5053 9.40952C58.5488 9.22715 58.4867 9.03576 58.3443 8.91378L55.3045 6.30993C54.9668 6.02059 55.1465 5.46734 55.5898 5.4318L59.5796 5.11194C59.7664 5.09696 59.9293 4.97868 60.0013 4.80556L61.5383 1.10997Z" fill="#FD7E14"/>
<path d="M43.5383 1.10997C43.7091 0.699319 44.2909 0.699318 44.4617 1.10996L45.9987 4.80556C46.0707 4.97868 46.2336 5.09696 46.4204 5.11194L50.4102 5.4318C50.8535 5.46734 51.0332 6.02059 50.6955 6.30993L47.6557 8.91378C47.5133 9.03576 47.4512 9.22715 47.4947 9.40952L48.4234 13.3028C48.5265 13.7354 48.0559 14.0773 47.6764 13.8455L44.2606 11.7592C44.1006 11.6615 43.8994 11.6615 43.7394 11.7592L40.3236 13.8455C39.9441 14.0773 39.4735 13.7354 39.5766 13.3028L40.5053 9.40952C40.5488 9.22715 40.4867 9.03576 40.3443 8.91378L37.3045 6.30993C36.9668 6.02059 37.1465 5.46734 37.5898 5.4318L41.5796 5.11194C41.7664 5.09696 41.9293 4.97868 42.0013 4.80556L43.5383 1.10997Z" fill="#FD7E14"/>
<path d="M25.5383 1.10997C25.7091 0.699319 26.2909 0.699318 26.4617 1.10996L27.9987 4.80556C28.0707 4.97868 28.2336 5.09696 28.4204 5.11194L32.4102 5.4318C32.8535 5.46734 33.0332 6.02059 32.6955 6.30993L29.6557 8.91378C29.5133 9.03576 29.4512 9.22715 29.4947 9.40952L30.4234 13.3028C30.5265 13.7354 30.0559 14.0773 29.6764 13.8455L26.2606 11.7592C26.1006 11.6615 25.8994 11.6615 25.7394 11.7592L22.3236 13.8455C21.9441 14.0773 21.4735 13.7354 21.5766 13.3028L22.5053 9.40952C22.5488 9.22715 22.4867 9.03576 22.3443 8.91378L19.3045 6.30993C18.9668 6.02059 19.1465 5.46734 19.5898 5.4318L23.5796 5.11194C23.7664 5.09696 23.9293 4.97868 24.0013 4.80556L25.5383 1.10997Z" fill="#FD7E14"/>
<path d="M7.53834 1.10997C7.70914 0.699319 8.29086 0.699318 8.46166 1.10996L9.99874 4.80556C10.0707 4.97868 10.2336 5.09696 10.4204 5.11194L14.4102 5.4318C14.8535 5.46734 15.0332 6.02059 14.6955 6.30993L11.6557 8.91378C11.5133 9.03576 11.4512 9.22715 11.4947 9.40952L12.4234 13.3028C12.5265 13.7354 12.0559 14.0773 11.6764 13.8455L8.26063 11.7592C8.10062 11.6615 7.89938 11.6615 7.73937 11.7592L4.32363 13.8455C3.94408 14.0773 3.47345 13.7354 3.57665 13.3028L4.50534 9.40952C4.54884 9.22715 4.48665 9.03576 4.34426 8.91378L1.30453 6.30993C0.966758 6.02059 1.14652 5.46734 1.58985 5.4318L5.57955 5.11194C5.76645 5.09696 5.92925 4.97868 6.00126 4.80556L7.53834 1.10997Z" fill="#FD7E14"/>
</svg>
