<svg width="141" height="70" viewBox="0 0 141 70" fill="none" xmlns="http://www.w3.org/2000/svg">
<path d="M18.915 34.9685C19.734 33.194 18.6147 32.5115 15.9939 32.5115H11.5713C10.6158 32.5115 10.4247 32.4296 10.6158 31.9655L10.9434 31.283C11.1345 30.8462 11.4075 30.7643 12.363 30.7643H18.1233C19.2972 30.7643 19.8159 30.9281 20.4438 31.1738L21.0171 28.7441H9.55112C7.36712 28.7441 5.67452 29.7269 4.80092 31.6379L3.57242 34.3679C2.61692 36.4154 3.29942 37.016 5.75642 37.016H10.8069C11.7624 37.016 11.9262 37.1252 11.7351 37.562L11.3529 38.4083C11.1618 38.8724 10.9161 38.927 9.93332 38.927H3.95462C2.72612 38.927 2.23472 38.7086 1.74332 38.4629L1.11542 40.9472H12.2811C15.2568 40.9472 16.6491 39.8825 17.5227 37.9442L18.915 34.9685Z" fill="#A7A7A7"/>
<path d="M48.864 35.6237C50.2836 35.6237 50.9115 35.7875 51.5121 35.9513L52.7406 33.2759C51.7851 33.4943 50.775 33.6035 49.7922 33.6035H45.3696L46.68 30.737H51.7032C53.1501 30.737 53.778 30.9008 54.3786 31.0646L54.9519 28.7168H40.8924C40.9743 29.2082 40.9743 29.645 40.4283 30.8189L36.7701 38.8451C36.5244 39.3911 36.2241 39.9098 35.8419 40.3739C35.5143 39.7733 35.2413 39.1181 35.0229 38.4629L33.03 32.3477L37.125 29.9453C38.2989 29.2628 38.9268 29.0444 39.8004 28.7441H34.1493C34.122 28.9079 34.0674 29.0444 33.9855 29.2082C33.7944 29.6177 33.4941 29.918 32.5113 30.5459L26.5872 34.2587L28.116 30.8735C28.6347 29.6996 29.0715 29.2628 29.5902 28.7714H22.383C22.4922 29.2628 22.4649 29.6996 21.9462 30.8735L18.3426 38.8451C17.8239 39.9917 17.4144 40.4558 16.8684 40.9472H24.0756C23.9937 40.4558 23.9937 39.9917 24.5397 38.8451L25.386 37.016L27.4335 35.7602L28.6893 40.9472H49.6557L51.2937 38.5994C50.3382 38.8178 49.3554 38.927 48.3726 38.927H42.9945L44.496 35.6237H48.864Z" fill="#A7A7A7"/>
<path d="M67.4008 37.9715C65.9539 38.2718 64.4797 38.4356 62.9782 38.4356C62.9782 38.4356 60.5758 38.4356 60.0844 38.4356C59.4565 38.4356 59.2654 38.2718 59.5111 37.6712C59.7568 37.0706 62.1319 31.9382 62.1319 31.9382C62.2138 31.7471 62.5141 31.2557 63.2785 31.2557H67.8376C68.5747 31.2557 69.2845 31.3922 69.9943 31.6379L70.7314 28.826H70.7041L70.7314 28.7441H60.9853C58.3372 28.7441 56.4262 29.6996 55.225 32.3477L52.9318 37.3982C51.7306 40.019 52.768 41.0018 55.3888 41.0018H65.4079L67.4008 37.9715Z" fill="#A7A7A7"/>
<path d="M85.1181 38.8178L88.8036 30.7916C89.3223 29.645 89.7591 29.1809 90.2505 28.6895H83.0433C83.1252 29.1809 83.1252 29.6177 82.5792 30.7916L81.2961 33.6035H76.6825L77.9655 30.8189C78.5115 29.645 78.921 29.2082 79.4397 28.7168H72.2325C72.3144 29.2082 72.3145 29.645 71.7685 30.8189L68.1102 38.8451C67.5642 39.9917 67.1547 40.4558 66.636 40.9472H73.8432C73.7613 40.4558 73.7613 39.9917 74.3073 38.8451L75.7815 35.6237H80.3952L78.921 38.8451C78.4023 39.9917 77.9655 40.4558 77.4468 40.9472H84.654C84.5721 40.4558 84.5721 39.9917 85.1181 38.8178Z" fill="#A7A7A7"/>
<path d="M98.1141 38.8997H92.736L94.2375 35.6237H98.6601C100.08 35.6237 100.708 35.7875 101.308 35.9513L102.537 33.2759C101.581 33.4943 100.598 33.6035 99.6156 33.6035H95.193L96.5034 30.737H101.554C103.001 30.737 103.629 30.9008 104.229 31.0646L104.803 28.7168H90.7431C90.825 29.2082 90.825 29.645 90.279 30.8189L86.5935 38.8178C86.0475 39.9644 85.638 40.4285 85.1193 40.9199H99.4245L101.062 38.5721C100.08 38.8178 99.0969 38.927 98.1141 38.8997Z" fill="#A7A7A7"/>
<path d="M118.096 35.6242C119.461 35.5423 120.662 35.4604 121.481 33.6586L122.491 31.42C123.42 29.3725 122.355 28.7173 119.516 28.7173H106.166C106.412 29.2087 106.384 29.6455 105.866 30.8194L102.208 38.8456C101.689 39.9922 101.279 40.4563 100.733 40.9477H107.941C107.859 40.4563 107.859 39.9922 108.405 38.8456L109.879 35.6242H111.79L112.309 40.9477H119.243C118.915 40.4836 118.915 39.8557 118.751 39.064L118.096 35.6242ZM116.322 31.42L115.639 32.9215C115.366 33.5221 115.093 33.604 114.301 33.604H110.807L112.145 30.7375H115.639C116.404 30.7375 116.595 30.8194 116.322 31.42Z" fill="#A7A7A7"/>
<path d="M129.589 31.2557C129.807 30.8189 130.053 30.737 131.036 30.7097H136.796C137.997 30.7097 138.461 30.8735 139.116 31.1192L139.908 28.6895H128.196C126.012 28.6895 124.32 29.6723 123.446 31.6106L122.218 34.3406C121.262 36.3881 121.945 36.9887 124.402 36.9887H129.452C130.408 36.9887 130.572 37.0706 130.38 37.5347L129.998 38.381C129.807 38.8451 129.561 38.8997 128.579 38.8997H122.6C121.399 38.8997 120.88 38.6813 120.389 38.4356L119.788 40.9199H130.954C133.929 40.9199 135.322 39.8279 136.195 37.9169L137.56 34.9412C138.379 33.1667 137.26 32.4842 134.639 32.4842H130.244C129.288 32.4842 129.07 32.4023 129.288 31.9382L129.589 31.2557Z" fill="#A7A7A7"/>
</svg>
