<svg width="160" height="15" viewBox="0 0 160 15" fill="none" xmlns="http://www.w3.org/2000/svg">
<g id="Frame 427319204">
<path id="Vector" d="M21.0458 7.96418C21.9818 5.93618 20.7026 5.15618 17.7074 5.15618H12.653C11.561 5.15618 11.3426 5.06258 11.561 4.53218L11.9354 3.75218C12.1538 3.25298 12.4658 3.15938 13.5578 3.15938H20.141C21.4826 3.15938 22.0754 3.34658 22.793 3.62738L23.4482 0.850586H10.3442C7.84817 0.850586 5.91377 1.97378 4.91537 4.15778L3.51137 7.27778C2.41937 9.61778 3.19937 10.3042 6.00737 10.3042H11.7794C12.8714 10.3042 13.0586 10.429 12.8402 10.9282L12.4034 11.8954C12.185 12.4258 11.9042 12.4882 10.781 12.4882H3.94817C2.54417 12.4882 1.98257 12.2386 1.42097 11.9578L0.703369 14.797H13.4642C16.865 14.797 18.4562 13.5802 19.4546 11.365L21.0458 7.96418Z" fill="#A7A7A7"/>
<path id="Vector_2" d="M55.2732 8.71294C56.8956 8.71294 57.6132 8.90014 58.2996 9.08734L59.7036 6.02974C58.6116 6.27934 57.4572 6.40413 56.334 6.40413H51.2796L52.7772 3.12813H58.518C60.1716 3.12813 60.8892 3.31534 61.5756 3.50254L62.2308 0.819336H46.1628C46.2564 1.38094 46.2564 1.88014 45.6324 3.22174L41.4516 12.3945C41.1708 13.0185 40.8276 13.6113 40.3908 14.1417C40.0164 13.4553 39.7044 12.7065 39.4548 11.9577L37.1772 4.96894L41.8572 2.22334C43.1988 1.44334 43.9164 1.19374 44.9148 0.850538H38.4564C38.4252 1.03774 38.3628 1.19374 38.2692 1.38094C38.0508 1.84894 37.7076 2.19214 36.5844 2.90974L29.814 7.15294L31.5612 3.28413C32.154 1.94253 32.6532 1.44334 33.246 0.881735H25.0092C25.134 1.44334 25.1028 1.94253 24.51 3.28413L20.3916 12.3945C19.7988 13.7049 19.3308 14.2353 18.7068 14.7969H26.9436C26.85 14.2353 26.85 13.7049 27.474 12.3945L28.4412 10.3041L30.7812 8.86894L32.2164 14.7969H56.178L58.05 12.1137C56.958 12.3633 55.8348 12.4881 54.7116 12.4881H48.5652L50.2812 8.71294H55.2732Z" fill="#A7A7A7"/>
<path id="Vector_3" d="M76.4581 11.3962C74.8045 11.7394 73.1197 11.9266 71.4037 11.9266C71.4037 11.9266 68.6581 11.9266 68.0965 11.9266C67.3789 11.9266 67.1605 11.7394 67.4413 11.053C67.7221 10.3666 70.4365 4.50099 70.4365 4.50099C70.5301 4.28259 70.8733 3.72099 71.7469 3.72099H76.9573C77.7997 3.72099 78.6109 3.87698 79.4221 4.15778L80.2645 0.944182H80.2333L80.2645 0.850586H69.1261C66.0997 0.850586 63.9157 1.94259 62.5429 4.96899L59.9221 10.741C58.5493 13.7362 59.7349 14.8594 62.7301 14.8594H74.1805L76.4581 11.3962Z" fill="#A7A7A7"/>
<path id="Vector_4" d="M96.7064 12.3633L100.918 3.19049C101.511 1.88009 102.01 1.34969 102.572 0.788086H94.3352C94.4288 1.34969 94.4288 1.84889 93.8048 3.19049L92.3384 6.40409H87.0656L88.532 3.22169C89.156 1.88009 89.624 1.38089 90.2168 0.819288H81.98C82.0736 1.38089 82.0736 1.88009 81.4496 3.22169L77.2688 12.3945C76.6448 13.7049 76.1768 14.2353 75.584 14.7969H83.8208C83.7272 14.2353 83.7272 13.7049 84.3512 12.3945L86.036 8.71289H91.3088L89.624 12.3945C89.0312 13.7049 88.532 14.2353 87.9392 14.7969H96.176C96.0824 14.2353 96.0824 13.7049 96.7064 12.3633Z" fill="#A7A7A7"/>
<path id="Vector_5" d="M111.559 12.4569H105.413L107.129 8.71294H112.183C113.805 8.71294 114.523 8.90014 115.209 9.08734L116.613 6.02974C115.521 6.27934 114.398 6.40413 113.275 6.40413H108.221L109.718 3.12813H115.49C117.144 3.12813 117.861 3.31534 118.548 3.50254L119.203 0.819336H103.135C103.229 1.38094 103.229 1.88013 102.605 3.22174L98.3926 12.3633C97.7686 13.6737 97.3006 14.2041 96.7078 14.7657H113.057L114.929 12.0825C113.805 12.3633 112.682 12.4881 111.559 12.4569Z" fill="#A7A7A7"/>
<path id="Vector_6" d="M134.396 8.71294C135.956 8.61934 137.328 8.52574 138.264 6.46654L139.419 3.90813C140.48 1.56813 139.263 0.819336 136.018 0.819336H120.761C121.042 1.38094 121.011 1.88014 120.418 3.22174L116.237 12.3945C115.644 13.7049 115.176 14.2353 114.552 14.7969H122.789C122.696 14.2353 122.696 13.7049 123.32 12.3945L125.004 8.71294H127.188L127.781 14.7969H135.706C135.332 14.2665 135.332 13.5489 135.144 12.6441L134.396 8.71294ZM132.368 3.90813L131.588 5.62413C131.276 6.31053 130.964 6.40413 130.059 6.40413H126.065L127.594 3.12813H131.588C132.461 3.12813 132.68 3.22173 132.368 3.90813Z" fill="#A7A7A7"/>
<path id="Vector_7" d="M147.53 3.72089C147.78 3.22169 148.06 3.12809 149.184 3.09689H155.767C157.14 3.09689 157.67 3.28409 158.419 3.56489L159.324 0.788086H145.939C143.443 0.788086 141.508 1.91129 140.51 4.12649L139.106 7.24649C138.014 9.58649 138.794 10.2729 141.602 10.2729H147.374C148.466 10.2729 148.653 10.3665 148.435 10.8969L147.998 11.8641C147.78 12.3945 147.499 12.4569 146.376 12.4569H139.543C138.17 12.4569 137.577 12.2073 137.016 11.9265L136.329 14.7657H149.09C152.491 14.7657 154.082 13.5177 155.08 11.3337L156.64 7.93289C157.576 5.90489 156.297 5.12489 153.302 5.12489H148.279C147.187 5.12489 146.937 5.03129 147.187 4.50089L147.53 3.72089Z" fill="#A7A7A7"/>
</g>
</svg>
