<svg width="18" height="14" viewBox="0 0 18 14" fill="none" xmlns="http://www.w3.org/2000/svg">
<g id="Group">
<g id="Group_2">
<path id="Vector" fill-rule="evenodd" clip-rule="evenodd" d="M-0.00402832 0H25.646V1.07734H-0.00402832V0ZM-0.00402832 2.15469H25.646V3.23203H-0.00402832V2.15469ZM-0.00402832 4.30664H25.646V5.38672H-0.00402832V4.30664ZM-0.00402832 6.46133H25.646V7.53867H-0.00402832V6.46133ZM-0.00402832 8.61602H25.646V9.69336H-0.00402832V8.61602ZM-0.00402832 10.768H25.646V11.8453H-0.00402832V10.768ZM-0.00402832 12.9227H25.646V14H-0.00402832V12.9227Z" fill="#BD3D44"/>
<path id="Vector_2" fill-rule="evenodd" clip-rule="evenodd" d="M-0.00396729 1.07739H25.646V2.15474H-0.00396729V1.07739ZM-0.00396729 3.23208H25.646V4.30669H-0.00396729V3.23208ZM-0.00396729 5.38403H25.646V6.46138H-0.00396729V5.38403ZM-0.00396729 7.53872H25.646V8.61606H-0.00396729V7.53872ZM-0.00396729 9.69341H25.646V10.7708H-0.00396729V9.69341ZM-0.00396729 11.8454H25.646V12.9227H-0.00396729V11.8454Z" fill="white"/>
</g>
<path id="Vector_3" fill-rule="evenodd" clip-rule="evenodd" d="M-0.00335693 0H10.2561V7.53867H-0.00335693V0Z" fill="#192F5D"/>
<path id="Vector_4" fill-rule="evenodd" clip-rule="evenodd" d="M0.852722 0.322754L0.947644 0.620801H1.24823L1.00565 0.804004L1.09794 1.10479L0.852722 0.918848L0.610144 1.10205L0.702429 0.804004L0.457214 0.620801H0.763074L0.852722 0.322754ZM2.56395 0.322754L2.65624 0.620801H2.95946L2.71425 0.804004L2.80653 1.10479L2.56395 0.918848L2.31874 1.10205L2.41102 0.804004L2.16844 0.620801H2.46903L2.56395 0.322754ZM4.27255 0.322754L4.36747 0.620801H4.66542L4.42284 0.804004L4.51512 1.10479L4.26991 0.918848L4.02733 1.10205L4.11962 0.804004L3.8744 0.620801H4.17762L4.27255 0.322754ZM5.98378 0.322754L6.07606 0.620801H6.37928L6.13407 0.804004L6.22899 1.10479L5.98378 0.918848L5.73856 1.10205L5.83348 0.804004L5.58827 0.620801H5.88885L5.98378 0.322754ZM7.69237 0.322754L7.78729 0.620801H8.08788L7.8453 0.804004L7.93759 1.10479L7.69237 0.918848L7.44979 1.10205L7.54208 0.804004L7.2995 0.620801H7.60009L7.69237 0.322754ZM9.4036 0.322754L9.49589 0.620801H9.79911L9.55389 0.804004L9.64882 1.10479L9.4036 0.918848L9.15839 1.10205L9.25331 0.804004L9.00809 0.620801H9.31132L9.4036 0.322754ZM1.70966 1.07744L1.80194 1.37549H2.10516L1.85995 1.55869L1.9496 1.85674L1.71229 1.67354L1.46708 1.85674L1.55409 1.55869L1.31678 1.37549H1.61737L1.70966 1.07744ZM3.41825 1.07744L3.51317 1.37549H3.81376L3.56854 1.55869L3.66346 1.85674L3.41825 1.67354L3.17303 1.85674L3.26796 1.55869L3.02274 1.37549H3.32596L3.41825 1.07744ZM5.12948 1.07744L5.22177 1.37549H5.52499L5.27977 1.55869L5.37206 1.85674L5.12948 1.67354L4.88427 1.85674L4.97655 1.55869L4.73397 1.37549H5.03456L5.12948 1.07744ZM6.83807 1.07744L6.933 1.37549H7.23358L6.98837 1.55869L7.08329 1.85674L6.83807 1.67354L6.5955 1.85674L6.68778 1.55869L6.44257 1.37549H6.74843L6.83807 1.07744ZM8.5493 1.07744L8.64159 1.37549H8.94481L8.6996 1.55869L8.79188 1.85674L8.5493 1.67354L8.30409 1.85674L8.39637 1.55869L8.1538 1.37549H8.45438L8.5493 1.07744ZM0.852722 1.82939L0.947644 2.13291H1.24823L1.00565 2.31611L1.09794 2.61416L0.852722 2.42822L0.610144 2.61416L0.702429 2.31338L0.457214 2.13018H0.763074L0.852722 1.82939ZM2.56395 1.82939L2.65624 2.13018H2.95946L2.71425 2.31338L2.80653 2.61143L2.56395 2.42549L2.31874 2.61143L2.41102 2.31064L2.16844 2.12744H2.46903L2.56395 1.82939ZM4.27255 1.82939L4.36747 2.13018H4.66542L4.42284 2.31338L4.51512 2.61143L4.26991 2.42549L4.02733 2.61143L4.11962 2.31064L3.8744 2.12744H4.17762L4.27255 1.82939ZM5.98378 1.82939L6.07606 2.13018H6.37928L6.13407 2.31338L6.22899 2.61143L5.98378 2.42549L5.73856 2.61143L5.83348 2.31064L5.58827 2.12744H5.88885L5.98378 1.82939ZM7.69237 1.82939L7.78729 2.13018H8.08788L7.8453 2.31338L7.93759 2.61143L7.69237 2.42549L7.44979 2.61143L7.54208 2.31064L7.2995 2.12744H7.60009L7.69237 1.82939ZM9.4036 1.82939L9.49589 2.13018H9.79911L9.55389 2.31338L9.64882 2.61143L9.4036 2.42549L9.15839 2.61143L9.25331 2.31064L9.00809 2.12744H9.31132L9.4036 1.82939ZM1.70966 2.58408L1.80194 2.88213H2.10516L1.85995 3.06533L1.95223 3.36611L1.70966 3.18018L1.46444 3.36338L1.55673 3.06533L1.31415 2.88213H1.61473L1.70966 2.58408ZM3.41825 2.58408L3.51317 2.88213H3.81376L3.56854 3.06533L3.66346 3.36611L3.41825 3.18018L3.17303 3.36338L3.26796 3.06533L3.02274 2.88213H3.32596L3.41825 2.58408ZM5.12948 2.58408L5.22177 2.88213H5.52499L5.27977 3.06533L5.37206 3.36611L5.12948 3.18018L4.88427 3.36338L4.97655 3.06533L4.73397 2.88213H5.03456L5.12948 2.58408ZM6.83807 2.58408L6.933 2.88213H7.23358L6.991 3.06533L7.08329 3.36611L6.83807 3.18018L6.5955 3.36338L6.68778 3.06533L6.44257 2.88213H6.74843L6.83807 2.58408ZM8.5493 2.58408L8.64159 2.88213H8.94481L8.6996 3.06533L8.79188 3.36611L8.5493 3.18018L8.30409 3.36338L8.39637 3.06533L8.1538 2.88213H8.45438L8.5493 2.58408ZM0.852722 3.33877L0.947644 3.63682H1.24823L1.00565 3.82002L1.09794 4.1208L0.852722 3.93486L0.610144 4.11807L0.702429 3.82002L0.457214 3.63682H0.763074L0.852722 3.33877ZM2.56395 3.33877L2.65624 3.63682H2.95946L2.71425 3.82002L2.80653 4.11807L2.56395 3.93486L2.31874 4.11807L2.41102 3.82002L2.16844 3.63682H2.46903L2.56395 3.33877ZM4.27255 3.33877L4.36747 3.63682H4.66542L4.42284 3.82002L4.51512 4.1208L4.26991 3.93486L4.02733 4.11807L4.11962 3.82002L3.8744 3.63682H4.17762L4.27255 3.33877ZM5.98378 3.33877L6.07606 3.63682H6.37928L6.13407 3.82002L6.22899 4.1208L5.98378 3.93486L5.73856 4.11807L5.83348 3.82002L5.58827 3.63682H5.88885L5.98378 3.33877ZM7.69237 3.33877L7.78729 3.63682H8.08788L7.8453 3.82002L7.93759 4.1208L7.69237 3.93486L7.44979 4.11807L7.54208 3.82002L7.2995 3.63682H7.60009L7.69237 3.33877ZM9.4036 3.33877L9.49589 3.63682H9.79911L9.55389 3.82002L9.64882 4.1208L9.4036 3.93486L9.15839 4.11807L9.25331 3.82002L9.00809 3.63682H9.31132L9.4036 3.33877ZM1.70966 4.09346L1.80194 4.3915H2.10516L1.85995 4.57471L1.95223 4.87275L1.70966 4.68682L1.46444 4.87275L1.55673 4.57197L1.31415 4.38877H1.61473L1.70966 4.09346ZM3.41825 4.09346L3.51317 4.3915H3.81376L3.56854 4.57471L3.66346 4.87275L3.41825 4.68682L3.17303 4.87275L3.26796 4.57197L3.02274 4.38877H3.32596L3.41825 4.09346ZM5.12948 4.09346L5.22177 4.3915H5.52499L5.27977 4.57471L5.37206 4.87275L5.12948 4.68682L4.88427 4.87275L4.97655 4.57197L4.73397 4.38877H5.03456L5.12948 4.09346ZM6.83807 4.09346L6.933 4.3915H7.23358L6.991 4.57471L7.08329 4.87275L6.83807 4.68682L6.5955 4.87275L6.68778 4.57197L6.44257 4.38877H6.74843L6.83807 4.09346ZM8.5493 4.09346L8.64159 4.3915H8.94481L8.6996 4.57471L8.79188 4.87275L8.5493 4.68682L8.30409 4.87275L8.39637 4.57197L8.1538 4.38877H8.45438L8.5493 4.09346ZM0.852722 4.84541L0.947644 5.14619H1.24823L1.00565 5.32939L1.09794 5.62471L0.852722 5.4415L0.610144 5.62471L0.702429 5.32666L0.457214 5.14346H0.763074L0.852722 4.84541ZM2.56395 4.84541L2.65624 5.14619H2.95946L2.71425 5.32939L2.80917 5.62471L2.56395 5.4415L2.31874 5.62471L2.41366 5.32666L2.16844 5.14346H2.46903L2.56395 4.84541ZM4.27255 4.84541L4.36747 5.14619H4.66542L4.42284 5.32939L4.51512 5.62471L4.26991 5.4415L4.02733 5.62471L4.11962 5.32666L3.8744 5.14346H4.17762L4.27255 4.84541ZM5.98378 4.84541L6.07606 5.14619H6.37928L6.13407 5.32939L6.22899 5.62471L5.98378 5.4415L5.73856 5.62471L5.83348 5.32666L5.58827 5.14346H5.88885L5.98378 4.84541ZM7.69237 4.84541L7.78729 5.14619H8.08788L7.8453 5.32939L7.93759 5.62471L7.69237 5.4415L7.44979 5.62471L7.54208 5.32666L7.2995 5.14346H7.60009L7.69237 4.84541ZM9.4036 4.84541L9.49589 5.14619H9.79911L9.55389 5.32939L9.64882 5.62471L9.4036 5.4415L9.15839 5.62471L9.25331 5.32666L9.00809 5.14346H9.31132L9.4036 4.84541ZM1.70966 5.6001L1.80194 5.89814H2.10516L1.85995 6.08135L1.95223 6.38213L1.70966 6.19619L1.46444 6.37939L1.55673 6.08135L1.31415 5.89814H1.61473L1.70966 5.6001ZM3.41825 5.6001L3.51317 5.89814H3.81376L3.56854 6.08135L3.66346 6.38213L3.41825 6.19619L3.17303 6.37939L3.26796 6.08135L3.02274 5.89814H3.32596L3.41825 5.6001ZM5.12948 5.6001L5.22177 5.89814H5.52499L5.27977 6.08135L5.37206 6.38213L5.12948 6.19619L4.88427 6.37939L4.97655 6.08135L4.73397 5.89814H5.03456L5.12948 5.6001ZM6.83807 5.6001L6.933 5.89814H7.23358L6.991 6.08135L7.08329 6.38213L6.83807 6.19619L6.5955 6.37939L6.68778 6.08135L6.44257 5.89814H6.74843L6.83807 5.6001ZM8.5493 5.6001L8.64159 5.89814H8.94481L8.6996 6.08135L8.79188 6.38213L8.5493 6.19619L8.30409 6.37939L8.39637 6.08135L8.1538 5.89814H8.45438L8.5493 5.6001ZM0.852722 6.35478L0.947644 6.65283H1.24823L1.00565 6.83604L1.09794 7.13408L0.852722 6.95088L0.610144 7.13408L0.702429 6.8333L0.457214 6.6501H0.763074L0.852722 6.35478ZM2.56395 6.35478L2.65624 6.65283H2.95946L2.71425 6.83604L2.80917 7.13408L2.56395 6.95088L2.31874 7.13408L2.41366 6.8333L2.16844 6.6501H2.46903L2.56395 6.35478ZM4.27255 6.35478L4.36747 6.65283H4.66542L4.42811 6.83604L4.5204 7.13408L4.27518 6.95088L4.03261 7.13408L4.12489 6.8333L3.87968 6.6501H4.1829L4.27255 6.35478ZM5.98378 6.35478L6.07606 6.65283H6.37928L6.13407 6.83604L6.22899 7.13408L5.98378 6.95088L5.73856 7.13408L5.83348 6.8333L5.58827 6.6501H5.88885L5.98378 6.35478ZM7.69237 6.35478L7.78729 6.65283H8.08788L7.8453 6.83604L7.93759 7.13408L7.69237 6.95088L7.44979 7.13408L7.54208 6.8333L7.2995 6.6501H7.60009L7.69237 6.35478ZM9.4036 6.35478L9.49589 6.65283H9.79911L9.55389 6.83604L9.64882 7.13408L9.4036 6.95088L9.15839 7.13408L9.25331 6.8333L9.00809 6.6501H9.31132L9.4036 6.35478Z" fill="white"/>
</g>
</svg>
