<svg width="160" height="80" viewBox="0 0 160 80" fill="none" xmlns="http://www.w3.org/2000/svg">
<g id="Pieces/Logos">
<g id="Group 427319241">
<path id="Vector" d="M40.4822 0.405665C40.4296 0.42672 40.1032 0.46883 39.7664 0.510941C39.3663 0.553051 39.1347 0.637271 39.0926 0.742546C39.0294 0.900459 39.1768 1.6795 39.4295 2.56381C39.5032 2.827 39.5874 3.15335 39.619 3.30074C39.7348 3.86923 40.019 5.03779 40.6928 7.66967C41.0823 9.17511 41.4297 10.5753 41.4718 10.7753C41.5245 10.9753 41.6192 11.3543 41.6824 11.6175C41.7561 11.8807 41.8929 12.3755 41.9771 12.7229C42.2824 13.9125 42.4193 14.4073 42.5456 14.881C42.6193 15.1442 42.7141 15.5232 42.7562 15.7232C42.7983 15.9233 42.9036 16.3549 42.9878 16.6707C43.072 16.9865 43.3247 17.913 43.5352 18.7236C43.7458 19.5342 43.9668 20.3659 44.009 20.5659C44.0511 20.7659 44.1985 21.3134 44.3248 21.7766C44.4511 22.2398 44.5985 22.7872 44.6406 22.9872C44.6827 23.1873 44.7775 23.5663 44.8406 23.8295C44.9143 24.0926 45.0407 24.5664 45.1144 24.8822C45.3038 25.6507 45.5355 26.5771 45.7355 27.3562C45.8197 27.7036 45.925 28.1247 45.9566 28.2931C46.0408 28.6932 46.6198 29.9354 46.8303 30.167C46.9777 30.346 47.3146 30.3565 51.1466 30.3565C55.1682 30.3565 55.3155 30.346 55.6524 30.1355C55.8735 30.0091 56.0104 29.8302 56.0104 29.7038C56.0104 29.588 56.0841 29.2722 56.1683 28.9985C56.2525 28.7353 56.3894 28.2089 56.4841 27.8299C56.5789 27.4509 56.7052 26.9772 56.7683 26.7772C56.8315 26.5771 56.9263 26.2403 56.9578 26.0402C57 25.8402 57.1473 25.2928 57.2737 24.8296C57.4 24.3664 57.5474 23.8189 57.5895 23.6189C57.6316 23.4189 57.779 22.8714 57.9053 22.4082C58.0317 21.945 58.179 21.3976 58.2212 21.1976C58.2633 20.9975 58.4106 20.4501 58.537 19.9869C58.6633 19.5237 58.8107 18.9763 58.8528 18.7762C58.8949 18.5762 59.0423 18.0288 59.1686 17.5656C59.295 17.1024 59.4423 16.5549 59.4845 16.3549C59.5266 16.1549 59.674 15.6074 59.8003 15.1442C59.9266 14.681 60.074 14.1336 60.1161 13.9336C60.1582 13.7335 60.3056 13.1861 60.4319 12.7229C60.5583 12.2597 60.7057 11.7122 60.7478 11.5122C60.7899 11.3122 60.9373 10.7648 61.0636 10.3016C61.1899 9.83835 61.3373 9.29091 61.3794 9.09089C61.7268 7.45912 62.2427 6.21687 62.6848 5.9221C62.8743 5.79577 67.1485 5.77471 89.7406 5.75366C110.564 5.7326 116.596 5.70102 116.723 5.60627C117.07 5.3115 117.144 4.92198 117.218 3.02702L117.281 1.12154L117.028 0.847822C116.881 0.689908 116.649 0.521468 116.502 0.458303C116.344 0.405665 104.837 0.363555 86.9929 0.353027C58.5896 0.353027 57.7369 0.353027 57.3789 0.542523C56.8947 0.805712 56.8736 0.889932 55.863 4.95356C55.7788 5.29045 55.6314 5.86946 55.5366 6.24845C55.4419 6.62744 55.2945 7.20646 55.2103 7.53281C54.8418 9.02772 54.5155 10.3226 54.2733 11.249C53.9996 12.3018 53.7996 13.1019 53.6522 13.6914C53.3258 15.0284 53.1785 15.5864 53.0521 16.0391C52.989 16.3023 52.8942 16.6812 52.8521 16.8813C52.7152 17.5024 51.9994 20.3027 51.7783 21.0607C51.652 21.4818 51.3046 21.9345 51.1045 21.9345C50.915 21.9345 50.7887 21.6187 50.5255 20.5133C50.4097 20.0501 50.2518 19.4079 50.1676 19.0921C50.0834 18.7762 49.9465 18.1551 49.8517 17.7235C49.757 17.2918 49.6096 16.6707 49.5359 16.3549C49.4622 16.0391 49.3148 15.3969 49.2201 14.9337C49.1148 14.4705 48.978 13.8072 48.8937 13.4598C48.82 13.1124 48.6832 12.4702 48.5884 12.0386C47.7147 7.95392 47.1146 5.46941 46.3882 2.93228C45.7671 0.742547 45.7671 0.753074 45.3775 0.574106C45.0933 0.447775 44.5248 0.405665 42.7983 0.38461C41.5771 0.374082 40.5454 0.374082 40.4822 0.405665ZM119.239 5.97474C119.07 6.04843 118.786 6.25898 118.597 6.44848C118.018 7.01696 117.986 8.2171 118.533 8.80665C118.891 9.19617 119.502 9.51199 119.913 9.51199C120.397 9.51199 121.029 9.14353 121.386 8.64873C121.913 7.92233 121.808 6.90116 121.134 6.32214C120.586 5.85893 119.828 5.72208 119.239 5.97474ZM120.765 6.51164C121.092 6.75377 121.386 7.33279 121.386 7.70125C121.386 7.9855 121.039 8.66979 120.892 8.66979C120.839 8.66979 120.671 8.78559 120.502 8.93298C120.113 9.26986 119.902 9.25933 119.323 8.92245C118.681 8.54346 118.544 8.31185 118.544 7.61703C118.544 7.09066 118.576 6.99591 118.891 6.70114C119.07 6.52217 119.323 6.35373 119.439 6.32214C119.818 6.21687 120.513 6.32215 120.765 6.51164Z" fill="#A7A7A7"/>
<path id="Vector_2" d="M119.134 6.99579C119.029 7.53269 119.06 8.40648 119.197 8.54334C119.365 8.71178 119.702 8.51175 119.702 8.24857C119.702 7.93274 120.081 7.97485 120.166 8.3012C120.218 8.50123 120.302 8.56439 120.502 8.56439C120.755 8.56439 120.776 8.53281 120.713 8.21698C120.629 7.78535 120.629 7.73272 120.713 7.37478C120.829 6.90104 120.534 6.66943 119.808 6.66943C119.218 6.66943 119.197 6.67996 119.134 6.99579ZM120.123 7.31161C120.123 7.43794 120.05 7.51164 119.913 7.51164C119.681 7.51164 119.608 7.14317 119.839 7.05895C120.029 6.99579 120.123 7.08001 120.123 7.31161ZM107.701 8.51175C105.332 8.82758 103.269 9.74348 102.248 10.9436C100.669 12.7965 100.405 15.6284 101.606 17.9234C102.248 19.1446 103.922 20.5658 105.122 20.8922C105.301 20.9343 105.774 21.0711 106.174 21.1975C106.596 21.3238 107.48 21.4606 108.227 21.5133C109.596 21.608 110.796 21.8396 111.28 22.0923C111.775 22.3555 112.196 22.9345 112.344 23.5556C112.459 24.0715 112.449 24.1873 112.28 24.5663C112.08 25.0084 111.617 25.4401 110.965 25.7875C110.659 25.9454 110.364 25.9875 109.333 25.977C107.859 25.977 107.417 25.8506 105.185 24.8084C104.364 24.4294 103.69 24.1662 103.311 24.0715C103.016 23.9978 102.458 24.5873 101.606 25.8401C100.742 27.1245 100.384 27.893 100.532 28.2088C100.69 28.5667 103.143 30.0406 103.585 30.0406C103.637 30.0406 103.816 30.1038 103.985 30.188C104.648 30.5249 105.911 30.9775 106.701 31.1565C107.964 31.4408 110.912 31.4197 112.07 31.1144C114.081 30.588 115.386 29.8722 116.649 28.5773C117.639 27.5666 118.102 26.5876 118.323 24.9453C118.502 23.682 118.207 21.7975 117.671 20.85C117.502 20.5447 116.965 19.8183 116.755 19.6078C116.502 19.3551 115.586 18.7445 115.176 18.555C114.386 18.1866 114.07 18.0813 112.07 17.5654C110.543 17.1654 110.122 17.0496 109.564 16.8706C108.754 16.5969 107.827 16.1232 107.469 15.7968C107.227 15.5652 107.175 15.4284 107.175 15.0178C107.175 14.2809 107.711 13.5545 108.543 13.1649C108.912 12.9965 109.227 12.9439 109.964 12.9439C111.091 12.9439 111.659 13.1228 113.575 14.0492C114.396 14.4493 114.944 14.6598 115.07 14.6177C115.376 14.523 116.523 13.3123 116.913 12.6596C117.281 12.0595 117.46 11.3858 117.344 10.9541C117.281 10.6699 116.565 10.1751 115.46 9.66979C114.06 9.0276 113.007 8.72231 111.386 8.50123C110.08 8.33279 109.07 8.33279 107.701 8.51175ZM66.2329 9.5224C65.2644 9.61715 65.0117 9.754 64.9065 10.2909C64.8644 10.4699 64.6959 11.0384 64.5275 11.5647C64.359 12.0806 64.1485 12.7754 64.0537 13.0912C63.959 13.4071 63.8221 13.8597 63.7484 14.0914C63.6747 14.323 63.5379 14.7967 63.4326 15.1441C63.3273 15.4915 63.1905 15.9653 63.1168 16.1969C63.0431 16.4285 62.8957 16.9022 62.801 17.2496C62.6957 17.597 62.5588 18.0708 62.4851 18.3024C62.4114 18.534 62.2746 19.0288 62.1693 19.4078C62.064 19.7868 61.9272 20.2816 61.8535 20.5132C61.7798 20.7448 61.6324 21.2396 61.5377 21.6186C61.4429 21.9975 61.2955 22.4923 61.2218 22.7239C61.1481 22.9556 61.0113 23.4503 60.906 23.8293C60.8007 24.2083 60.6639 24.7242 60.5902 24.9874C60.5165 25.2506 60.3796 25.7559 60.2849 26.1138C60.1901 26.4823 60.0427 27.0718 59.948 27.4298C59.8532 27.7982 59.7059 28.3141 59.6216 28.5878C59.5374 28.851 59.4637 29.2826 59.4532 29.5247L59.4321 29.9774L60.2217 30.1248C61.2534 30.3143 63.8221 30.3248 64.3696 30.1353C64.7591 29.9985 64.7907 29.9458 64.9907 29.251C65.675 26.8507 65.6223 26.956 66.1171 26.6297C66.812 26.1559 67.6542 26.0296 69.5912 26.1033C70.4861 26.1349 71.402 26.2086 71.6125 26.2612C72.2021 26.4086 72.5811 26.8613 72.8442 27.7456C72.9706 28.1667 73.1706 28.8299 73.2864 29.2194C73.4654 29.809 73.5496 29.9458 73.7601 29.9985C74.1391 30.0932 78.3291 30.1038 78.6555 30.0195C78.8134 29.9774 78.9608 29.8722 78.9923 29.7774C79.0344 29.6932 78.866 28.8826 78.6239 27.9667C78.3923 27.0508 78.1607 26.1138 78.1185 25.8822C78.0343 25.4716 77.8238 24.6084 77.0237 21.4291C76.9289 21.0711 76.7921 20.5026 76.7079 20.1658C76.6236 19.8394 76.4763 19.2709 76.392 18.9024C76.2973 18.5445 76.1604 17.976 76.0762 17.6391C75.4446 15.1231 75.3498 14.7546 74.6339 12.5122C73.8654 10.1119 73.718 9.75401 73.497 9.66979C72.9495 9.44871 67.9805 9.35396 66.2329 9.5224ZM69.0859 16.4285C69.2228 16.5969 69.3175 16.8285 69.7176 17.8286C69.9808 18.5024 70.1597 19.0919 70.2861 19.7236C70.4019 20.3447 70.4019 20.4289 70.2334 20.5974C70.0229 20.8185 69.0122 20.9869 68.4121 20.9027C68.2016 20.8816 67.9384 20.7658 67.8437 20.6605C67.6857 20.4816 67.6857 20.4184 67.8437 19.7868C67.9384 19.4078 68.0121 18.9656 68.0121 18.8077C68.0226 18.1971 68.6438 16.2495 68.8438 16.2495C68.8859 16.2495 69.0017 16.3337 69.0859 16.4285ZM94.331 9.51187C93.952 9.55398 93.5204 9.64873 93.3624 9.72242C93.0887 9.84875 93.0677 9.91192 93.0677 10.5015C93.0677 10.8594 93.015 12.1332 92.9519 13.3544C92.8992 14.5651 92.8361 16.1021 92.8045 16.7548C92.7834 17.4075 92.7308 17.9865 92.6992 18.0392C92.5624 18.2603 92.1413 18.1445 91.9833 17.8497C91.9096 17.6918 91.5938 17.1128 91.278 16.5653C90.9727 16.0179 90.5832 15.3126 90.4147 14.9967C90.2358 14.6914 89.962 14.1966 89.7936 13.9124C89.6252 13.6281 89.4883 13.386 89.4883 13.365C89.4883 13.3439 89.1304 12.7017 88.6987 11.9332C88.2671 11.1647 87.9092 10.5015 87.9092 10.4594C87.9092 10.4278 87.7302 10.1962 87.5091 9.95403L87.0985 9.51187H84.8983C82.7928 9.51187 81.2873 9.65926 81.0663 9.90139C80.8241 10.1435 80.7189 12.9439 80.6767 20.7763C80.6241 28.9563 80.6346 29.051 80.8452 29.5458L81.0663 30.0511L83.3823 30.0195C85.5826 29.988 85.7089 29.9774 85.9195 29.7669C86.1405 29.5458 86.1405 29.43 86.2248 25.419C86.309 21.1869 86.33 20.9869 86.7406 20.9869C86.9301 20.9869 88.2566 23.145 89.2356 25.04C91.3727 29.1879 91.7307 29.809 92.0991 29.9037C92.257 29.9458 93.7099 29.988 95.3416 29.988C97.5524 29.988 98.342 29.9564 98.4578 29.8616C98.5736 29.7563 98.6262 29.3668 98.6894 28.1667C98.7736 26.1875 98.7526 11.7437 98.6683 10.6173L98.5946 9.77506L98.0683 9.65926C97.3629 9.50134 95.1732 9.41712 94.331 9.51187ZM80.3293 41.463C80.1819 41.484 79.3082 41.5577 78.3817 41.6209C75.992 41.7999 73.4233 42.1683 71.1704 42.6842C70.6229 42.8 69.9808 42.9474 69.7491 43C69.5175 43.0526 69.0017 43.1895 68.5911 43.3053C68.1911 43.4211 67.6226 43.5895 67.3278 43.6738C66.075 44.0212 64.2853 44.6528 62.3799 45.4319C61.1692 45.9267 58.8215 47.0742 55.7475 48.6744C51.9681 50.6325 48.873 52.1169 47.7992 52.4643C47.6518 52.5169 47.2728 52.6538 46.957 52.7801C45.1778 53.4749 41.5985 54.3592 40.5878 54.3592C40.1773 54.3592 40.0509 54.4119 39.7035 54.7488C39.3877 55.0646 39.2403 55.3593 38.9982 56.0963C38.8297 56.6121 38.6929 57.2859 38.6929 57.5701C38.6929 58.1176 38.7455 58.2228 42.188 63.9919C42.2617 64.1077 42.3565 64.2762 42.3986 64.3604C42.4407 64.4446 42.5881 64.6868 42.7249 64.8868C42.8618 65.0868 43.0197 65.35 43.0723 65.4658C43.125 65.5816 43.2724 65.8448 43.3882 66.0448C45.2515 69.161 45.6832 69.8347 45.9779 70.1084L46.3359 70.4348L49.831 70.498C53.3893 70.5611 54.1368 70.6348 54.8737 71.0033C55.5475 71.3507 55.6422 71.6455 55.6422 73.572C55.6422 75.5196 55.6317 75.488 56.695 76.2776C58.6321 77.7199 61.2008 78.2041 64.3275 77.7409C65.7381 77.5304 66.9067 77.0566 67.7279 76.3408C68.2227 75.9196 68.6438 75.2669 68.6438 74.9301C68.6438 74.4879 69.0017 73.3404 69.2122 73.1088C69.5702 72.7087 69.8228 72.6666 70.9914 72.8351C73.3706 73.1614 75.1393 73.3194 77.8027 73.4036C81.2452 73.5299 80.4978 73.5299 83.9613 73.4036C87.6144 73.2772 90.2358 73.0246 93.4361 72.5087C95.089 72.235 95.6785 72.1192 99.2579 71.3086C99.8474 71.1717 100.279 71.2349 100.563 71.4876C100.658 71.5718 100.9 71.9823 101.111 72.3929C101.9 74.0036 102.732 74.4669 104.785 74.4669C107.69 74.4669 110.701 73.2457 112.912 71.1823C113.786 70.3716 114.112 69.8874 114.512 68.8136C114.744 68.1819 114.786 67.9082 114.807 66.5396C114.839 64.9815 114.839 64.9815 115.133 64.6657C115.302 64.4867 115.765 64.1288 116.155 63.8656C117.26 63.1287 120.071 60.2862 120.766 59.2019C121.376 58.2544 121.524 57.9175 121.755 56.9911C122.345 54.654 121.229 53.1696 118.123 52.1906C114.86 51.1483 112.786 50.4114 110.07 49.306C108.617 48.7165 105.216 47.2742 104.49 46.9373C104.09 46.7478 103.279 46.3899 102.7 46.1477C102.121 45.9056 101.606 45.674 101.542 45.6319C101.49 45.5898 101.016 45.3687 100.49 45.1582C99.9737 44.9371 99.5 44.716 99.4368 44.6739C99.3842 44.6318 99.2368 44.5686 99.121 44.537C99.0052 44.5054 98.6473 44.3791 98.3314 44.2528C97.005 43.7475 95.9312 43.4211 93.6467 42.8421C91.857 42.3999 88.8461 41.9051 86.4353 41.663C84.9825 41.5156 80.8873 41.3893 80.3293 41.463ZM90.8674 43.5159C91.0359 43.6106 91.0674 43.7475 91.0674 44.4212C91.0674 45.3476 91.0464 45.3687 89.7304 45.4635C89.2778 45.495 88.2461 45.5898 87.4354 45.674C85.9089 45.8319 83.8982 46.0319 81.0136 46.3057C76.4236 46.7478 74.4655 46.9478 72.4547 47.1689C72.1494 47.2005 71.8125 47.3058 71.7073 47.4005C71.5072 47.5795 71.423 48.0111 70.6966 52.6748C70.6019 53.2854 70.4545 54.1592 70.3703 54.6224C70.2861 55.0856 70.2229 55.591 70.2229 55.7489C70.2229 56.1805 69.8965 56.3279 68.6648 56.4542C66.9699 56.6332 66.8857 56.6227 66.6856 56.2331C66.5909 56.0542 66.4751 55.7804 66.433 55.6331C66.3803 55.4857 66.2435 55.0962 66.1171 54.7803C65.9908 54.4645 65.8329 54.0118 65.7487 53.7802C65.5802 53.2644 65.1486 52.0853 64.8538 51.3062C64.7275 50.9904 64.5906 50.6114 64.538 50.464C64.4854 50.3167 64.2748 49.7271 64.0643 49.1481C63.2958 47.0005 63.1378 46.4952 63.201 46.3372C63.2642 46.1583 64.9275 45.8635 65.2118 45.9688C65.5802 46.1162 65.9276 46.9899 67.391 51.5168C67.8121 52.8433 68.0226 53.3065 68.17 53.3065C68.2542 53.3065 68.3595 52.8959 68.4753 52.1695C68.5701 51.5484 68.7174 50.6114 68.8017 50.0956C68.8754 49.5692 69.0227 48.6007 69.1175 47.9374C69.2122 47.2742 69.3386 46.4636 69.4123 46.1477L69.5386 45.5687L70.7493 45.3898C71.4125 45.295 72.2021 45.2108 72.4863 45.2108C72.7811 45.2108 73.6022 45.1371 74.3286 45.0529C75.055 44.9581 76.4026 44.8213 77.329 44.7265C79.0134 44.5686 80.6662 44.4002 83.6455 44.1054C84.5193 44.0107 85.9616 43.8633 86.8564 43.779C87.7513 43.6843 88.8672 43.579 89.3304 43.5264C90.5411 43.4001 90.6358 43.4001 90.8674 43.5159ZM90.341 46.632C91.1832 46.8741 91.3833 47.0321 91.3833 47.4637C91.3833 47.7163 91.2885 47.9164 91.0359 48.1901L90.6884 48.548L89.8673 48.2848C89.4041 48.1374 88.9514 48.0532 88.804 48.0848C88.404 48.1901 87.8986 48.6744 87.9302 48.927C87.9723 49.2113 88.7619 49.6113 89.2883 49.6218C89.8568 49.6218 91.1095 49.9798 91.4885 50.2535C91.8465 50.5061 92.1834 51.1799 92.2886 51.8326C92.436 52.7696 91.7096 53.8644 90.5516 54.4224C90.0357 54.6751 89.8357 54.7066 88.9093 54.7172C88.0776 54.7172 87.7197 54.6751 87.1722 54.475C86.33 54.1803 86.0142 53.9908 86.0142 53.7486C86.0142 53.496 86.6248 52.4643 86.7827 52.4537C87.1196 52.4222 87.5723 52.4959 87.825 52.6327C87.9934 52.7169 88.425 52.7801 88.8461 52.7801C89.4988 52.7801 89.6146 52.7485 89.8568 52.5064C90.2252 52.1379 90.1726 51.7589 89.7094 51.4431C89.4041 51.2325 89.2146 51.201 88.4145 51.201C87.3828 51.201 86.888 51.0536 86.4037 50.5904C85.6563 49.885 85.4563 48.6322 85.9616 47.8321C86.6564 46.7373 88.7408 46.1688 90.341 46.632ZM84.8772 48.8849C85.1615 51.1378 85.4036 53.8539 85.372 54.254C85.3299 54.5908 85.2983 54.6224 84.9088 54.6961C84.6772 54.7382 84.1508 54.7698 83.7403 54.7698C83.0981 54.7803 82.9717 54.7488 82.7823 54.5382C82.5506 54.275 81.9085 53.3275 81.9085 53.2433C81.9085 53.138 80.9505 51.9379 80.8557 51.9379C80.6978 51.9379 80.6557 52.2432 80.7504 52.8538C80.7925 53.1907 80.8662 53.7802 80.9084 54.1697C80.9715 54.8224 80.961 54.8856 80.7294 55.0225C80.5925 55.1067 80.1925 55.212 79.8345 55.2435C79.0344 55.3278 79.0029 55.2962 78.8555 53.9276C78.8028 53.3802 78.6765 52.2958 78.5923 51.5063C78.5081 50.7167 78.4344 49.6218 78.4344 49.0639V48.0532L78.9818 47.8848C79.2766 47.8006 79.7714 47.7269 80.0767 47.7269C80.7083 47.7269 80.6662 47.6848 81.9506 49.5481C82.3612 50.1482 82.7086 50.5483 82.7717 50.5061C82.8559 50.4535 82.8665 49.9903 82.8244 49.0428C82.7823 48.0427 82.7928 47.6216 82.8875 47.5269C82.9717 47.4426 83.3086 47.411 83.8561 47.4321L84.6983 47.4637L84.8772 48.8849ZM75.7604 48.3375C75.8762 48.4217 76.5921 50.0324 76.8131 50.7272C76.8868 50.9588 77.0237 51.3378 77.1079 51.5694C77.6132 52.9485 78.3291 55.033 78.3291 55.1488C78.3291 55.4962 76.6973 55.6646 76.392 55.3488C76.2973 55.2646 76.2236 55.1067 76.2236 55.0014C76.2236 54.8961 76.0973 54.6751 75.9499 54.5171C75.6867 54.2329 75.6656 54.2329 74.8234 54.2961C74.0444 54.3592 73.9286 54.4013 73.6759 54.6856C73.4759 54.8961 73.3812 55.1067 73.3812 55.3488C73.3812 55.8226 73.2127 55.9278 72.3916 56.0121C71.5494 56.0858 71.3704 55.9805 71.4441 55.433C71.5599 54.5382 71.8231 53.0222 72.2863 50.643C72.7284 48.3796 72.6758 48.4533 73.6549 48.3585C74.676 48.2533 75.6235 48.2427 75.7604 48.3375ZM115.744 52.2642C116.102 52.4327 116.144 52.6117 115.955 53.1275C115.87 53.3696 115.755 53.7065 115.702 53.8855C115.386 54.9488 115.26 55.2014 114.997 55.2014C114.575 55.2014 114.018 54.9172 114.018 54.6961C114.018 54.4224 114.491 52.8748 114.691 52.4748C114.881 52.1169 115.249 52.0432 115.744 52.2642ZM117.755 53.0222L118.028 53.2538L117.807 53.9908C117.513 54.9382 117.207 55.591 116.997 55.7068C116.849 55.8015 116.344 55.6752 116.039 55.4751C115.807 55.3278 115.965 54.6329 116.586 53.1696C116.734 52.8327 116.797 52.7801 117.123 52.7801C117.344 52.7801 117.586 52.8748 117.755 53.0222ZM113.112 53.117C113.291 53.4118 113.491 54.6435 113.491 55.4857C113.491 56.4016 113.796 57.9386 113.996 58.0123C114.081 58.0544 114.407 57.9491 114.702 57.7807C115.007 57.6228 115.333 57.5175 115.418 57.5491C115.618 57.6228 115.807 58.2544 115.807 58.8545V59.3072L114.312 60.2862C112.291 61.6022 112.059 61.718 111.859 61.518C111.712 61.3601 111.68 61.139 111.386 57.8333C111.322 57.1069 111.207 55.8331 111.133 54.9909C111.049 54.0855 111.028 53.3907 111.08 53.2854C111.133 53.1801 111.396 53.0749 111.722 53.0117C112.681 52.8433 112.944 52.8643 113.112 53.117ZM109.143 54.4119C109.206 54.9277 109.291 55.8752 109.322 56.5174C109.385 57.5912 109.649 59.8757 109.764 60.4547C109.817 60.7073 109.964 60.7179 110.775 60.5178C111.028 60.4547 111.059 60.4757 111.165 60.8442C111.228 61.0758 111.28 61.4548 111.28 61.6969C111.28 62.1391 111.28 62.1391 110.417 62.6549C109.322 63.2971 108.227 63.834 107.996 63.834C107.743 63.834 107.627 63.5708 107.564 62.8339C107.248 59.5493 107.154 58.5597 107.017 56.7806C106.932 55.6541 106.859 54.5066 106.859 54.2434C106.859 53.5276 107.059 53.4223 108.28 53.4433L109.017 53.4644L109.143 54.4119ZM104.343 53.8329C104.606 53.9802 104.816 54.4119 104.901 54.9909C104.943 55.2541 105.037 55.6331 105.111 55.8331C105.195 56.0331 105.332 56.5595 105.438 56.9911C105.532 57.4227 105.69 58.0439 105.774 58.3597C105.859 58.6755 105.985 59.1703 106.059 59.4651C106.143 59.7493 106.28 60.2968 106.374 60.6758C106.943 62.8234 107.206 64.034 107.132 64.2025C107.059 64.392 105.817 64.9921 105.501 64.9921C105.248 64.9921 105.111 64.8236 104.974 64.2972C104.911 64.0656 104.764 63.7814 104.648 63.6761C104.458 63.5077 104.385 63.4971 104.006 63.6129C103.764 63.6866 103.458 63.8551 103.322 63.9919C103.1 64.213 103.069 64.3499 103.069 65.0131C103.069 65.4342 103.027 65.8343 102.985 65.8869C102.837 66.0974 101.469 66.6765 101.132 66.6765C100.753 66.6765 100.616 66.4343 100.69 65.8658C100.732 65.5921 100.805 63.8235 100.858 61.9391C100.911 60.0546 101.016 57.5912 101.079 56.4647C101.216 54.0224 101.163 54.1066 102.458 53.9908C103.164 53.9381 103.795 53.8329 104.101 53.7381C104.122 53.7276 104.227 53.7802 104.343 53.8329ZM99.8895 57.0438C99.9316 59.7388 99.7316 66.487 99.6053 66.9607C99.5526 67.1397 99.4053 67.266 99.121 67.3713C98.1314 67.7292 97.4156 67.9398 97.1524 67.9398C96.8997 67.9398 96.8576 67.8766 96.6786 67.2239C96.3944 66.2659 96.2154 65.55 96.1207 65.0447C95.9838 64.3604 95.7311 63.6761 95.6364 63.6972C95.5838 63.7182 95.5311 63.9709 95.5206 64.2762C95.4574 65.6763 95.2574 68.0977 95.1732 68.3082C95.11 68.4767 94.91 68.5714 94.3205 68.7083C93.8888 68.8136 93.2993 68.8872 92.994 68.8872H92.4571L92.236 68.1608C92.1097 67.7608 92.0149 67.3713 92.0149 67.2976C92.0149 67.2239 91.9518 66.9291 91.8675 66.6343C91.7833 66.3396 91.6359 65.8027 91.5517 65.4342C91.457 65.0763 91.3096 64.5078 91.2254 64.1709C91.0674 63.5393 90.0884 59.5809 89.8989 58.7808C89.6567 57.7596 89.4673 57.0227 89.3199 56.5279C89.1198 55.8541 89.1304 55.5488 89.362 55.433C89.4567 55.3804 90.0252 55.3067 90.6148 55.2646C91.6465 55.2014 91.6991 55.212 91.8465 55.433C91.9412 55.5594 92.0149 55.8226 92.0149 56.0121C92.0149 56.2016 92.0886 56.7174 92.1834 57.1701C92.2676 57.6228 92.415 58.3702 92.4992 58.8334C92.5939 59.2966 92.7308 60.002 92.815 60.4126C92.9098 60.8126 92.994 61.2653 93.0256 61.4022C93.0571 61.5706 93.1098 61.6232 93.1835 61.5495C93.3098 61.4232 93.4467 59.6967 93.5519 57.0648C93.6362 54.7488 93.5625 54.8751 94.9205 54.8014C95.7417 54.7593 95.7943 54.7698 95.9417 55.0014C96.0259 55.1383 96.1733 55.612 96.2786 56.0436C96.3733 56.4753 96.4997 57.0438 96.5628 57.3069C96.6892 57.8333 96.7628 58.1913 97.005 59.244C97.0892 59.6441 97.2471 60.0652 97.3629 60.1704C97.5524 60.3705 97.5629 60.3389 97.6261 58.6124C97.6682 57.6438 97.6998 56.37 97.6998 55.7804C97.6998 54.4119 97.7419 54.3698 99.121 54.3908L99.8579 54.4119L99.8895 57.0438ZM87.3407 56.0015C87.4354 56.2226 87.4881 56.6016 87.467 56.9174L87.4354 57.4438L86.7511 57.5912C86.3722 57.6754 85.8774 57.7702 85.6563 57.8123C85.0352 57.9281 84.993 58.0649 85.2036 59.3809C85.2983 60.002 85.3826 60.6758 85.3826 60.8653C85.3826 61.539 85.4984 61.6232 86.4353 61.6232C87.446 61.6232 87.4986 61.6864 87.5723 62.9076C87.6144 63.7182 87.6144 63.7287 87.3407 63.834C87.1828 63.8867 86.9196 63.9393 86.7617 63.9393C86.6038 63.9393 86.309 63.9919 86.1195 64.0551L85.7721 64.1814L85.8563 65.0342C85.8984 65.5079 85.9616 66.2554 86.0037 66.6975C86.0879 67.7819 86.1827 67.8555 87.3933 67.7924C87.8881 67.7608 88.3408 67.7819 88.4145 67.824C88.604 67.9398 88.8567 68.6346 88.8567 69.0452C88.8567 69.3399 88.804 69.4347 88.604 69.5189C88.0776 69.7189 87.067 69.8242 85.5615 69.8558C83.814 69.8874 83.8034 69.8768 83.8034 69.1504C83.8034 68.9188 83.7297 68.1819 83.6455 67.5187C83.5613 66.8554 83.4244 65.6237 83.3297 64.7815C83.056 62.2023 82.877 60.581 82.7086 59.1493C82.477 57.2754 82.4664 56.391 82.6559 56.2015C82.7507 56.1068 83.2349 56.0015 83.9087 55.9278C84.5193 55.8647 85.3194 55.7804 85.6984 55.7278C87.088 55.5699 87.1617 55.5804 87.3407 56.0015ZM80.961 56.4121C81.1084 56.5911 81.14 56.8332 81.7506 63.1497C81.8348 64.0762 81.9822 65.5184 82.0664 66.3606C82.3927 69.5715 82.3927 69.6242 82.2664 69.74C82.0559 69.9084 80.3399 69.8979 80.1819 69.7189C80.0556 69.5821 79.7924 67.7292 79.645 66.0132C79.6135 65.6237 79.5398 65.1816 79.4766 65.0342C79.3819 64.7605 79.3503 64.7499 78.687 64.8131C77.8238 64.8763 77.5501 65.0868 77.6448 65.6026C77.6764 65.7921 77.7501 66.4554 77.8027 67.0765C77.8554 67.6976 77.9291 68.5188 77.9712 68.8978C78.0554 69.761 78.0343 69.7716 76.6763 69.6031C75.7814 69.4978 75.6656 69.4557 75.5814 69.2347C75.4761 68.9609 75.4551 68.7083 74.8024 61.0969C74.7076 60.0231 74.5918 58.7282 74.5392 58.2018C74.4971 57.6754 74.4971 57.1806 74.5497 57.0859C74.6129 56.9595 74.8655 56.8964 75.5604 56.8332C76.8131 56.7279 76.6763 56.4753 77.0132 59.6756C77.2658 62.0865 77.2869 62.1707 77.6132 62.3496C77.8659 62.497 77.9606 62.497 78.5081 62.3602L79.1187 62.2023L79.0871 60.9916C79.066 60.3284 78.9923 59.1282 78.9081 58.3386C78.8239 57.5491 78.7502 56.8437 78.7502 56.7911C78.7502 56.391 80.6767 56.0647 80.961 56.4121ZM120.86 56.77C121.039 57.1175 120.987 57.3069 120.502 58.0333C120.071 58.665 118.66 60.1599 117.86 60.8126C117.176 61.3706 115.102 62.8129 114.186 63.3708C113.007 64.0867 112.923 64.1393 112.386 64.4657C111.522 65.0026 111.786 64.8447 110.07 65.8027C108.501 66.6659 105.174 68.2556 104.911 68.2556C104.837 68.2556 104.743 68.2977 104.701 68.3609C104.669 68.4135 104.49 68.5083 104.301 68.5609C104.111 68.6135 103.774 68.7399 103.543 68.8241C103.311 68.9083 102.858 69.0767 102.542 69.2031C99.679 70.2874 95.7733 71.3086 92.3307 71.8771C88.1829 72.5614 85.951 72.7087 80.7504 72.6456C75.2551 72.5824 73.4654 72.414 66.2224 71.2559C61.4219 70.4874 59.0426 70.2242 54.9053 69.9926C50.6101 69.761 47.4939 69.54 47.3781 69.4663C47.2307 69.3715 47.2518 69.0452 47.4202 68.6241L47.5781 68.2556H49.8731C51.168 68.2556 52.8524 68.3188 53.7473 68.4135C55.6106 68.603 57.853 68.8346 59.748 69.0452C60.506 69.1294 61.8324 69.2662 62.6957 69.361C63.5695 69.4452 64.8959 69.5926 65.6434 69.6768C66.4014 69.761 67.7279 69.9084 68.5911 69.9926C69.4649 70.0874 70.7914 70.2242 71.5388 70.3085C78.2133 71.0454 84.0771 71.0454 89.962 70.2979C92.6676 69.9505 95.7101 69.361 97.963 68.7188C99.1105 68.403 100.711 67.9187 100.942 67.824C101.079 67.7713 101.49 67.6345 101.837 67.5081C102.195 67.3923 102.848 67.1502 103.279 66.9818C103.711 66.8028 104.237 66.5922 104.437 66.5186C106.575 65.729 109.343 64.3604 111.575 63.0023C112.112 62.676 112.628 62.3602 112.733 62.3075C112.996 62.1496 115.007 60.7916 115.86 60.1915C117.186 59.2651 120.113 57.0016 120.334 56.7385C120.513 56.5068 120.724 56.5279 120.86 56.77ZM73.6759 57.2332C73.8444 57.4333 73.8654 58.8861 73.7075 58.9914C73.6338 59.0335 73.2654 59.0966 72.8758 59.1282C71.8757 59.223 71.8547 59.2651 71.9915 60.6442C72.0652 61.2653 72.1915 62.5812 72.2758 63.5708C72.3705 64.5499 72.5179 65.9606 72.6021 66.687C72.7811 68.2766 72.7916 69.2768 72.6337 69.3294C72.3705 69.4136 70.844 69.1399 70.7493 68.9925C70.6966 68.9083 70.6229 68.5293 70.5914 68.1503C70.5598 67.7713 70.465 66.9712 70.3808 66.3606C70.2966 65.75 70.1597 64.5183 70.065 63.6235C69.8123 61.2232 69.6018 59.8125 69.4649 59.6441C69.3702 59.5388 69.128 59.5072 68.549 59.5388L67.7489 59.5704L67.6121 59.1493C67.2331 58.0123 67.4963 57.5175 68.4753 57.5175C68.7701 57.5175 69.3175 57.4649 69.6965 57.4017C70.3282 57.2964 72.0863 57.149 73.1285 57.1069C73.3812 57.1069 73.6128 57.1596 73.6759 57.2332ZM65.1486 58.0755C65.2118 58.1491 65.296 58.5281 65.3381 58.9071C65.4013 59.5704 65.3907 59.6125 65.1381 59.7809C64.9802 59.8757 64.517 59.9915 64.0643 60.0336C63.1378 60.1178 63.0326 60.2125 63.1063 60.8653C63.2115 61.6864 63.3063 61.7601 64.0958 61.6969C65.0749 61.6232 65.1381 61.6759 65.2223 62.6444C65.296 63.4024 65.2855 63.4656 65.0644 63.6445C64.9065 63.7709 64.6538 63.834 64.3275 63.834C63.4853 63.834 63.4431 63.9288 63.5484 65.6132C63.5905 66.4027 63.6326 67.2344 63.6432 67.466V67.8871L62.6746 67.8766C62.1167 67.8766 61.6429 67.824 61.5587 67.7503C61.3482 67.5713 60.9271 64.4025 60.6428 60.8863C60.5797 60.1073 60.506 59.2966 60.4744 59.0966C60.4533 58.8966 60.4638 58.665 60.5165 58.6018C60.6218 58.4439 61.8745 58.1913 63.2221 58.0649C64.6538 57.9175 65.0223 57.9281 65.1486 58.0755ZM47.3676 58.2439C47.6834 58.5597 48.4519 60.2231 48.3887 60.4336C48.3151 60.6652 47.7571 60.9916 47.4518 60.9916C47.3255 60.9916 47.157 60.8968 47.0939 60.781C46.7254 60.2125 46.1148 58.9387 46.1148 58.7703C46.1148 58.5387 46.7254 58.086 47.0939 58.0544C47.136 58.0439 47.2623 58.1386 47.3676 58.2439ZM59.5795 58.5597C59.8006 58.6966 59.948 60.1494 59.769 60.3389C59.6953 60.4126 59.2111 60.5284 58.6952 60.6021C57.8109 60.7284 57.7372 60.76 57.6425 61.0232C57.5793 61.2337 57.5898 61.4443 57.6951 61.7601L57.853 62.2023L58.7163 62.2338C59.2321 62.2549 59.6111 62.3181 59.6848 62.3918C59.7374 62.4654 59.8006 62.8655 59.8111 63.2866C59.8427 64.2551 59.7269 64.3815 58.8531 64.4446C57.9793 64.5078 57.8741 64.6762 58.0109 65.7395C58.0636 66.1711 58.1162 66.6975 58.1162 66.9081V67.3081H57.1266C55.7054 67.3081 55.7475 67.3608 55.537 65.15C55.4527 64.1604 55.3053 62.6444 55.2211 61.7812C55.0211 59.7914 55.0211 59.1598 55.2106 59.0019C55.2843 58.9387 56.2002 58.7913 57.2319 58.6861C59.569 58.4439 59.4006 58.4544 59.5795 58.5597ZM51.9576 59.0335C53.8104 59.5177 54.7474 61.0126 54.7474 63.4656C54.7474 64.7183 54.4842 65.7921 54.0315 66.3396C53.8736 66.5396 53.4841 66.8554 53.1683 67.0344C52.6524 67.3186 52.5155 67.3502 51.6944 67.3502C50.6522 67.3397 50.1574 67.1397 49.5468 66.4554C48.5467 65.35 48.1256 62.8444 48.6519 61.139C48.8309 60.5494 48.9783 60.3284 49.4626 59.8336C49.8415 59.4546 50.2416 59.1703 50.5364 59.065C51.1364 58.865 51.3049 58.8545 51.9576 59.0335ZM46.0832 59.9388C46.3359 60.3705 46.5675 60.8863 46.5991 61.0863C46.6622 61.4022 46.6306 61.4864 46.3675 61.6969C46.0095 61.9812 45.6726 62.0128 45.4831 61.7812C45.3252 61.5917 44.841 60.7179 44.5251 60.0441L44.3041 59.5809L44.5988 59.3388C44.8199 59.1598 45.0094 59.0966 45.2726 59.1177C45.6095 59.1493 45.6726 59.2124 46.0832 59.9388ZM112.565 67.3081C113.038 67.445 113.196 67.6976 113.196 68.3188C113.217 69.1399 113.038 69.2031 111.544 68.8872C109.964 68.5609 108.133 69.0873 106.532 70.319C105.827 70.8559 104.964 71.6981 104.964 71.8455C104.964 71.9402 104.669 72.3929 104.332 72.8035C104.069 73.1193 103.522 73.0456 103.111 72.6351C102.911 72.435 102.753 72.2034 102.753 72.1087C102.753 71.7613 103.069 71.3296 103.943 70.5085C105.469 69.0557 106.975 68.1714 109.006 67.5187C109.933 67.2239 111.849 67.1081 112.565 67.3081ZM111.228 69.8347C111.722 70.2979 111.522 70.8664 110.554 71.7507C109.68 72.5403 108.627 73.0351 107.354 73.2457C106.827 73.3404 106.048 73.0035 105.964 72.6456C105.817 72.0876 106.743 70.898 107.764 70.2979C109.112 69.5084 110.659 69.2978 111.228 69.8347ZM61.8851 71.6349C63.9485 71.856 66.1382 72.7193 67.2015 73.7089C67.4331 73.9299 67.4857 74.0668 67.4857 74.4774C67.4857 75.2248 67.3383 75.5196 66.9804 75.5196C66.8014 75.5196 66.5909 75.4249 66.4751 75.2985C65.9592 74.7195 64.5275 73.8878 63.5168 73.5615C63.2431 73.4773 62.4746 73.3404 61.8219 73.2562C60.8428 73.1509 60.4112 73.1509 59.3479 73.2562C58.6426 73.3404 57.9162 73.4562 57.7267 73.5194C57.5477 73.5825 57.2424 73.6246 57.0424 73.6036C56.7371 73.572 56.695 73.5299 56.6634 73.2141C56.6213 72.7824 56.7897 72.3508 57.1371 72.035C57.5688 71.6244 59.9585 71.4139 61.8851 71.6349ZM63.5379 74.5721C64.4117 74.9195 64.9591 75.3722 64.9591 75.7302C64.9591 76.046 64.5275 76.4355 63.9695 76.6145C63.2221 76.8566 60.8849 76.8461 60.1691 76.6039C59.4743 76.3618 58.611 75.8038 58.432 75.467C58.1688 74.9722 58.6426 74.4247 59.4637 74.2458C59.6848 74.1931 60.4954 74.1826 61.2745 74.1931C62.5799 74.2352 62.7589 74.2668 63.5379 74.5721Z" fill="#A7A7A7"/>
</g>
</g>
</svg>
